%TF.GenerationSoftware,KiCad,Pcbnew,4.0.1+dfsg1-stable*%
%TF.CreationDate,2016-02-24T22:56:22+01:00*%
%TF.ProjectId,iotad,696F7461642E6B696361645F70636200,rev?*%
%TF.FileFunction,Copper,L1,Top,Signal*%
%FSLAX46Y46*%
G04 Gerber Fmt 4.6, Leading zero omitted, Abs format (unit mm)*
G04 Created by KiCad (PCBNEW 4.0.1+dfsg1-stable) date Wed 24 Feb 2016 10:56:22 PM CET*
%MOMM*%
G01*
G04 APERTURE LIST*
%ADD10C,0.100000*%
%ADD11C,0.150000*%
%ADD12C,0.600000*%
%ADD13C,1.524000*%
%ADD14R,0.508000X1.143000*%
%ADD15R,1.700000X2.000000*%
%ADD16R,2.000000X1.700000*%
%ADD17R,2.032000X1.727200*%
%ADD18O,2.032000X1.727200*%
%ADD19R,1.597660X1.800860*%
%ADD20C,0.400000*%
%ADD21C,0.254000*%
G04 APERTURE END LIST*
D10*
D11*
X151130000Y-116332000D02*
X151130000Y-116586000D01*
X151130000Y-115316000D02*
X151130000Y-115570000D01*
X151130000Y-114300000D02*
X151130000Y-114554000D01*
X151130000Y-113538000D02*
X151130000Y-101600000D01*
X151130000Y-129540000D02*
X151130000Y-117348000D01*
X165100000Y-101600000D02*
X165100000Y-129540000D01*
X137160000Y-129540000D02*
X165100000Y-129540000D01*
X137160000Y-101600000D02*
X137160000Y-129540000D01*
X137160000Y-101600000D02*
X165100000Y-101600000D01*
D12*
X154940000Y-105156000D03*
D13*
X161036000Y-122682000D03*
X158496000Y-120142000D03*
X163576000Y-120142000D03*
D14*
X159893000Y-109855000D03*
X158623000Y-109855000D03*
X157353000Y-109855000D03*
X156083000Y-109855000D03*
X156083000Y-103505000D03*
X157353000Y-103505000D03*
X158623000Y-103505000D03*
X159893000Y-103505000D03*
D15*
X158242000Y-112300000D03*
X158242000Y-116300000D03*
D16*
X160750000Y-127508000D03*
X156750000Y-127508000D03*
D17*
X163068000Y-103632000D03*
D18*
X163068000Y-106172000D03*
X163068000Y-108712000D03*
X163068000Y-111252000D03*
X163068000Y-113792000D03*
X163068000Y-116332000D03*
D17*
X153162000Y-103632000D03*
D18*
X153162000Y-106172000D03*
X153162000Y-108712000D03*
X153162000Y-111252000D03*
X153162000Y-113792000D03*
X153162000Y-116332000D03*
X153162000Y-118872000D03*
X153162000Y-121412000D03*
X153162000Y-123952000D03*
X153162000Y-126492000D03*
D19*
X160632140Y-124968000D03*
X163471860Y-124968000D03*
D12*
X156440000Y-105156000D03*
X157940000Y-105156000D03*
X159440000Y-105156000D03*
X160940000Y-105156000D03*
X154940000Y-106656000D03*
X156440000Y-106656000D03*
X157940000Y-106656000D03*
X159440000Y-106656000D03*
X160940000Y-106656000D03*
X154940000Y-108156000D03*
X156440000Y-108156000D03*
X157940000Y-108156000D03*
X159440000Y-108156000D03*
X160940000Y-108156000D03*
X161194000Y-109934000D03*
X160686000Y-116284000D03*
X161448000Y-117554000D03*
X163734000Y-118316000D03*
X162464000Y-118316000D03*
X163988000Y-122380000D03*
X162718000Y-122380000D03*
X163480000Y-127714000D03*
X149510000Y-127714000D03*
X148748000Y-122380000D03*
X150018000Y-122380000D03*
X148494000Y-118316000D03*
X149764000Y-118316000D03*
X147478000Y-117554000D03*
X146716000Y-116284000D03*
X147224000Y-109934000D03*
X146970000Y-108156000D03*
X145470000Y-108156000D03*
X143970000Y-108156000D03*
X142470000Y-108156000D03*
X140970000Y-108156000D03*
X146970000Y-106656000D03*
X145470000Y-106656000D03*
X143970000Y-106656000D03*
X142470000Y-106656000D03*
X140970000Y-106656000D03*
X146970000Y-105156000D03*
X145470000Y-105156000D03*
X143970000Y-105156000D03*
X142470000Y-105156000D03*
D19*
X146662140Y-124968000D03*
X149501860Y-124968000D03*
D17*
X139192000Y-103632000D03*
D18*
X139192000Y-106172000D03*
X139192000Y-108712000D03*
X139192000Y-111252000D03*
X139192000Y-113792000D03*
X139192000Y-116332000D03*
X139192000Y-118872000D03*
X139192000Y-121412000D03*
X139192000Y-123952000D03*
X139192000Y-126492000D03*
D17*
X149098000Y-103632000D03*
D18*
X149098000Y-106172000D03*
X149098000Y-108712000D03*
X149098000Y-111252000D03*
X149098000Y-113792000D03*
X149098000Y-116332000D03*
D16*
X146780000Y-127508000D03*
X142780000Y-127508000D03*
D15*
X144272000Y-112300000D03*
X144272000Y-116300000D03*
D14*
X145923000Y-109855000D03*
X144653000Y-109855000D03*
X143383000Y-109855000D03*
X142113000Y-109855000D03*
X142113000Y-103505000D03*
X143383000Y-103505000D03*
X144653000Y-103505000D03*
X145923000Y-103505000D03*
D13*
X147066000Y-122682000D03*
X144526000Y-120142000D03*
X149606000Y-120142000D03*
D12*
X140970000Y-105156000D03*
D20*
X161036000Y-119094000D02*
X158242000Y-116300000D01*
X161036000Y-122682000D02*
X161036000Y-119094000D01*
X157480000Y-123952000D02*
X158750000Y-122682000D01*
X158750000Y-122682000D02*
X161036000Y-122682000D01*
X153162000Y-123952000D02*
X157480000Y-123952000D01*
X139192000Y-123952000D02*
X143510000Y-123952000D01*
X144780000Y-122682000D02*
X147066000Y-122682000D01*
X143510000Y-123952000D02*
X144780000Y-122682000D01*
X147066000Y-122682000D02*
X147066000Y-119094000D01*
X147066000Y-119094000D02*
X144272000Y-116300000D01*
X162306000Y-114554000D02*
X163068000Y-113792000D01*
X156972000Y-114554000D02*
X162306000Y-114554000D01*
X156810002Y-114715998D02*
X156972000Y-114554000D01*
X156810002Y-117509998D02*
X156810002Y-114715998D01*
X153162000Y-121158000D02*
X156810002Y-117509998D01*
X153162000Y-121412000D02*
X153162000Y-121158000D01*
X139192000Y-121412000D02*
X139192000Y-121158000D01*
X139192000Y-121158000D02*
X142840002Y-117509998D01*
X142840002Y-117509998D02*
X142840002Y-114715998D01*
X142840002Y-114715998D02*
X143002000Y-114554000D01*
X143002000Y-114554000D02*
X148336000Y-114554000D01*
X148336000Y-114554000D02*
X149098000Y-113792000D01*
X162306000Y-111252000D02*
X163068000Y-111252000D01*
X159766000Y-113792000D02*
X162306000Y-111252000D01*
X156210000Y-113792000D02*
X159766000Y-113792000D01*
X156210000Y-115316000D02*
X156210000Y-113792000D01*
X153162000Y-118364000D02*
X156210000Y-115316000D01*
X153162000Y-118872000D02*
X153162000Y-118364000D01*
X139192000Y-118872000D02*
X139192000Y-118364000D01*
X139192000Y-118364000D02*
X142240000Y-115316000D01*
X142240000Y-115316000D02*
X142240000Y-113792000D01*
X142240000Y-113792000D02*
X145796000Y-113792000D01*
X145796000Y-113792000D02*
X148336000Y-111252000D01*
X148336000Y-111252000D02*
X149098000Y-111252000D01*
X153162000Y-113792000D02*
X153162000Y-114046000D01*
X155956000Y-122682000D02*
X158496000Y-120142000D01*
X153162000Y-114046000D02*
X151638000Y-115570000D01*
X151638000Y-115570000D02*
X151638000Y-122682000D01*
X151638000Y-122682000D02*
X155956000Y-122682000D01*
X155416000Y-112300000D02*
X158242000Y-112300000D01*
X153924000Y-113792000D02*
X155416000Y-112300000D01*
X153162000Y-113792000D02*
X153924000Y-113792000D01*
X159893000Y-110649000D02*
X158242000Y-112300000D01*
X159893000Y-109855000D02*
X159893000Y-110649000D01*
X145923000Y-109855000D02*
X145923000Y-110649000D01*
X145923000Y-110649000D02*
X144272000Y-112300000D01*
X139192000Y-113792000D02*
X139954000Y-113792000D01*
X139954000Y-113792000D02*
X141446000Y-112300000D01*
X141446000Y-112300000D02*
X144272000Y-112300000D01*
X137668000Y-122682000D02*
X141986000Y-122682000D01*
X137668000Y-115570000D02*
X137668000Y-122682000D01*
X139192000Y-114046000D02*
X137668000Y-115570000D01*
X141986000Y-122682000D02*
X144526000Y-120142000D01*
X139192000Y-113792000D02*
X139192000Y-114046000D01*
X157353000Y-110109000D02*
X157353000Y-109855000D01*
X156210000Y-111252000D02*
X157353000Y-110109000D01*
X153162000Y-111252000D02*
X156210000Y-111252000D01*
X139192000Y-111252000D02*
X142240000Y-111252000D01*
X142240000Y-111252000D02*
X143383000Y-110109000D01*
X143383000Y-110109000D02*
X143383000Y-109855000D01*
X154813000Y-109855000D02*
X156083000Y-109855000D01*
X153670000Y-108712000D02*
X154813000Y-109855000D01*
X153162000Y-108712000D02*
X153670000Y-108712000D01*
X139192000Y-108712000D02*
X139700000Y-108712000D01*
X139700000Y-108712000D02*
X140843000Y-109855000D01*
X140843000Y-109855000D02*
X142113000Y-109855000D01*
X160750000Y-125593860D02*
X160632140Y-125476000D01*
X160750000Y-128016000D02*
X160750000Y-125593860D01*
X146780000Y-128016000D02*
X146780000Y-125593860D01*
X146780000Y-125593860D02*
X146662140Y-125476000D01*
X163471860Y-120754140D02*
X163576000Y-120650000D01*
X163471860Y-125476000D02*
X163471860Y-120754140D01*
X149501860Y-125476000D02*
X149501860Y-120754140D01*
X149501860Y-120754140D02*
X149606000Y-120650000D01*
X155226000Y-126492000D02*
X156750000Y-128016000D01*
X153162000Y-126492000D02*
X155226000Y-126492000D01*
X139192000Y-126492000D02*
X141256000Y-126492000D01*
X141256000Y-126492000D02*
X142780000Y-128016000D01*
D21*
G36*
X147528729Y-115758511D02*
X147414655Y-116332000D01*
X147528729Y-116905489D01*
X147853585Y-117391670D01*
X148339766Y-117716526D01*
X148913255Y-117830600D01*
X149282745Y-117830600D01*
X149856234Y-117716526D01*
X150342415Y-117391670D01*
X150440518Y-117244848D01*
X150420000Y-117348000D01*
X150420000Y-119148392D01*
X150406607Y-119161785D01*
X150337143Y-118919603D01*
X149813698Y-118732856D01*
X149258632Y-118760638D01*
X148874857Y-118919603D01*
X148805392Y-119161787D01*
X149606000Y-119962395D01*
X149620143Y-119948253D01*
X149799748Y-120127858D01*
X149785605Y-120142000D01*
X149799748Y-120156143D01*
X149620143Y-120335748D01*
X149606000Y-120321605D01*
X148805392Y-121122213D01*
X148874857Y-121364397D01*
X149398302Y-121551144D01*
X149953368Y-121523362D01*
X150337143Y-121364397D01*
X150406607Y-121122215D01*
X150420000Y-121135608D01*
X150420000Y-123432570D01*
X149787610Y-123432570D01*
X149628860Y-123591320D01*
X149628860Y-124841000D01*
X149648860Y-124841000D01*
X149648860Y-125095000D01*
X149628860Y-125095000D01*
X149628860Y-126344680D01*
X149787610Y-126503430D01*
X150420000Y-126503430D01*
X150420000Y-128830000D01*
X148219149Y-128830000D01*
X148231441Y-128822090D01*
X148376431Y-128609890D01*
X148427440Y-128358000D01*
X148427440Y-126658000D01*
X148383279Y-126423304D01*
X148576721Y-126503430D01*
X149216110Y-126503430D01*
X149374860Y-126344680D01*
X149374860Y-125095000D01*
X149354860Y-125095000D01*
X149354860Y-124841000D01*
X149374860Y-124841000D01*
X149374860Y-123591320D01*
X149216110Y-123432570D01*
X148576721Y-123432570D01*
X148343332Y-123529243D01*
X148164703Y-123707871D01*
X148079454Y-123913681D01*
X148064132Y-123832253D01*
X147996464Y-123727094D01*
X148249629Y-123474370D01*
X148462757Y-122961100D01*
X148463242Y-122405339D01*
X148251010Y-121891697D01*
X147901000Y-121541075D01*
X147901000Y-119934302D01*
X148196856Y-119934302D01*
X148224638Y-120489368D01*
X148383603Y-120873143D01*
X148625787Y-120942608D01*
X149426395Y-120142000D01*
X148625787Y-119341392D01*
X148383603Y-119410857D01*
X148196856Y-119934302D01*
X147901000Y-119934302D01*
X147901000Y-119094000D01*
X147873747Y-118956990D01*
X147837440Y-118774460D01*
X147656434Y-118503566D01*
X145769440Y-116616572D01*
X145769440Y-115389000D01*
X147775629Y-115389000D01*
X147528729Y-115758511D01*
X147528729Y-115758511D01*
G37*
X147528729Y-115758511D02*
X147414655Y-116332000D01*
X147528729Y-116905489D01*
X147853585Y-117391670D01*
X148339766Y-117716526D01*
X148913255Y-117830600D01*
X149282745Y-117830600D01*
X149856234Y-117716526D01*
X150342415Y-117391670D01*
X150440518Y-117244848D01*
X150420000Y-117348000D01*
X150420000Y-119148392D01*
X150406607Y-119161785D01*
X150337143Y-118919603D01*
X149813698Y-118732856D01*
X149258632Y-118760638D01*
X148874857Y-118919603D01*
X148805392Y-119161787D01*
X149606000Y-119962395D01*
X149620143Y-119948253D01*
X149799748Y-120127858D01*
X149785605Y-120142000D01*
X149799748Y-120156143D01*
X149620143Y-120335748D01*
X149606000Y-120321605D01*
X148805392Y-121122213D01*
X148874857Y-121364397D01*
X149398302Y-121551144D01*
X149953368Y-121523362D01*
X150337143Y-121364397D01*
X150406607Y-121122215D01*
X150420000Y-121135608D01*
X150420000Y-123432570D01*
X149787610Y-123432570D01*
X149628860Y-123591320D01*
X149628860Y-124841000D01*
X149648860Y-124841000D01*
X149648860Y-125095000D01*
X149628860Y-125095000D01*
X149628860Y-126344680D01*
X149787610Y-126503430D01*
X150420000Y-126503430D01*
X150420000Y-128830000D01*
X148219149Y-128830000D01*
X148231441Y-128822090D01*
X148376431Y-128609890D01*
X148427440Y-128358000D01*
X148427440Y-126658000D01*
X148383279Y-126423304D01*
X148576721Y-126503430D01*
X149216110Y-126503430D01*
X149374860Y-126344680D01*
X149374860Y-125095000D01*
X149354860Y-125095000D01*
X149354860Y-124841000D01*
X149374860Y-124841000D01*
X149374860Y-123591320D01*
X149216110Y-123432570D01*
X148576721Y-123432570D01*
X148343332Y-123529243D01*
X148164703Y-123707871D01*
X148079454Y-123913681D01*
X148064132Y-123832253D01*
X147996464Y-123727094D01*
X148249629Y-123474370D01*
X148462757Y-122961100D01*
X148463242Y-122405339D01*
X148251010Y-121891697D01*
X147901000Y-121541075D01*
X147901000Y-119934302D01*
X148196856Y-119934302D01*
X148224638Y-120489368D01*
X148383603Y-120873143D01*
X148625787Y-120942608D01*
X149426395Y-120142000D01*
X148625787Y-119341392D01*
X148383603Y-119410857D01*
X148196856Y-119934302D01*
X147901000Y-119934302D01*
X147901000Y-119094000D01*
X147873747Y-118956990D01*
X147837440Y-118774460D01*
X147656434Y-118503566D01*
X145769440Y-116616572D01*
X145769440Y-115389000D01*
X147775629Y-115389000D01*
X147528729Y-115758511D01*
G36*
X141499302Y-102395173D02*
X141320673Y-102573801D01*
X141224000Y-102807190D01*
X141224000Y-103219250D01*
X141382750Y-103378000D01*
X141986000Y-103378000D01*
X141986000Y-103358000D01*
X142240000Y-103358000D01*
X142240000Y-103378000D01*
X143256000Y-103378000D01*
X143256000Y-103358000D01*
X143510000Y-103358000D01*
X143510000Y-103378000D01*
X144526000Y-103378000D01*
X144526000Y-103358000D01*
X144780000Y-103358000D01*
X144780000Y-103378000D01*
X145796000Y-103378000D01*
X145796000Y-103358000D01*
X146050000Y-103358000D01*
X146050000Y-103378000D01*
X146653250Y-103378000D01*
X146812000Y-103219250D01*
X146812000Y-102807190D01*
X146715327Y-102573801D01*
X146536698Y-102395173D01*
X146331072Y-102310000D01*
X147642375Y-102310000D01*
X147543673Y-102408701D01*
X147447000Y-102642090D01*
X147447000Y-103346250D01*
X147605750Y-103505000D01*
X148971000Y-103505000D01*
X148971000Y-103485000D01*
X149225000Y-103485000D01*
X149225000Y-103505000D01*
X149245000Y-103505000D01*
X149245000Y-103759000D01*
X149225000Y-103759000D01*
X149225000Y-103779000D01*
X148971000Y-103779000D01*
X148971000Y-103759000D01*
X147605750Y-103759000D01*
X147447000Y-103917750D01*
X147447000Y-104621910D01*
X147543673Y-104855299D01*
X147722302Y-105033927D01*
X147875780Y-105097500D01*
X147853585Y-105112330D01*
X147528729Y-105598511D01*
X147414655Y-106172000D01*
X147528729Y-106745489D01*
X147853585Y-107231670D01*
X148168366Y-107442000D01*
X147853585Y-107652330D01*
X147528729Y-108138511D01*
X147414655Y-108712000D01*
X147528729Y-109285489D01*
X147853585Y-109771670D01*
X148168366Y-109982000D01*
X147853585Y-110192330D01*
X147528729Y-110678511D01*
X147479095Y-110928037D01*
X145769440Y-112637692D01*
X145769440Y-111983428D01*
X146513434Y-111239434D01*
X146694440Y-110968540D01*
X146743416Y-110722318D01*
X146773431Y-110678390D01*
X146824440Y-110426500D01*
X146824440Y-109283500D01*
X146780162Y-109048183D01*
X146641090Y-108832059D01*
X146428890Y-108687069D01*
X146177000Y-108636060D01*
X145669000Y-108636060D01*
X145433683Y-108680338D01*
X145292629Y-108771104D01*
X145266698Y-108745173D01*
X145033309Y-108648500D01*
X144938750Y-108648500D01*
X144780000Y-108807250D01*
X144780000Y-109728000D01*
X144800000Y-109728000D01*
X144800000Y-109982000D01*
X144780000Y-109982000D01*
X144780000Y-110002000D01*
X144526000Y-110002000D01*
X144526000Y-109982000D01*
X144506000Y-109982000D01*
X144506000Y-109728000D01*
X144526000Y-109728000D01*
X144526000Y-108807250D01*
X144367250Y-108648500D01*
X144272691Y-108648500D01*
X144039302Y-108745173D01*
X144012765Y-108771709D01*
X143888890Y-108687069D01*
X143637000Y-108636060D01*
X143129000Y-108636060D01*
X142893683Y-108680338D01*
X142747093Y-108774666D01*
X142618890Y-108687069D01*
X142367000Y-108636060D01*
X141859000Y-108636060D01*
X141623683Y-108680338D01*
X141407559Y-108819410D01*
X141270502Y-109020000D01*
X141188868Y-109020000D01*
X140873974Y-108705106D01*
X140761271Y-108138511D01*
X140436415Y-107652330D01*
X140126931Y-107445539D01*
X140542732Y-107074036D01*
X140796709Y-106546791D01*
X140799358Y-106531026D01*
X140678217Y-106299000D01*
X139319000Y-106299000D01*
X139319000Y-106319000D01*
X139065000Y-106319000D01*
X139065000Y-106299000D01*
X139045000Y-106299000D01*
X139045000Y-106045000D01*
X139065000Y-106045000D01*
X139065000Y-106025000D01*
X139319000Y-106025000D01*
X139319000Y-106045000D01*
X140678217Y-106045000D01*
X140799358Y-105812974D01*
X140796709Y-105797209D01*
X140542732Y-105269964D01*
X140367155Y-105113093D01*
X140443317Y-105098762D01*
X140659441Y-104959690D01*
X140804431Y-104747490D01*
X140855440Y-104495600D01*
X140855440Y-103790750D01*
X141224000Y-103790750D01*
X141224000Y-104202810D01*
X141320673Y-104436199D01*
X141499302Y-104614827D01*
X141732691Y-104711500D01*
X141827250Y-104711500D01*
X141986000Y-104552750D01*
X141986000Y-103632000D01*
X142240000Y-103632000D01*
X142240000Y-104552750D01*
X142398750Y-104711500D01*
X142493309Y-104711500D01*
X142726698Y-104614827D01*
X142748000Y-104593525D01*
X142769302Y-104614827D01*
X143002691Y-104711500D01*
X143097250Y-104711500D01*
X143256000Y-104552750D01*
X143256000Y-103632000D01*
X143510000Y-103632000D01*
X143510000Y-104552750D01*
X143668750Y-104711500D01*
X143763309Y-104711500D01*
X143996698Y-104614827D01*
X144018000Y-104593525D01*
X144039302Y-104614827D01*
X144272691Y-104711500D01*
X144367250Y-104711500D01*
X144526000Y-104552750D01*
X144526000Y-103632000D01*
X144780000Y-103632000D01*
X144780000Y-104552750D01*
X144938750Y-104711500D01*
X145033309Y-104711500D01*
X145266698Y-104614827D01*
X145288000Y-104593525D01*
X145309302Y-104614827D01*
X145542691Y-104711500D01*
X145637250Y-104711500D01*
X145796000Y-104552750D01*
X145796000Y-103632000D01*
X146050000Y-103632000D01*
X146050000Y-104552750D01*
X146208750Y-104711500D01*
X146303309Y-104711500D01*
X146536698Y-104614827D01*
X146715327Y-104436199D01*
X146812000Y-104202810D01*
X146812000Y-103790750D01*
X146653250Y-103632000D01*
X146050000Y-103632000D01*
X145796000Y-103632000D01*
X144780000Y-103632000D01*
X144526000Y-103632000D01*
X143510000Y-103632000D01*
X143256000Y-103632000D01*
X142240000Y-103632000D01*
X141986000Y-103632000D01*
X141382750Y-103632000D01*
X141224000Y-103790750D01*
X140855440Y-103790750D01*
X140855440Y-102768400D01*
X140811162Y-102533083D01*
X140672090Y-102316959D01*
X140661905Y-102310000D01*
X141704928Y-102310000D01*
X141499302Y-102395173D01*
X141499302Y-102395173D01*
G37*
X141499302Y-102395173D02*
X141320673Y-102573801D01*
X141224000Y-102807190D01*
X141224000Y-103219250D01*
X141382750Y-103378000D01*
X141986000Y-103378000D01*
X141986000Y-103358000D01*
X142240000Y-103358000D01*
X142240000Y-103378000D01*
X143256000Y-103378000D01*
X143256000Y-103358000D01*
X143510000Y-103358000D01*
X143510000Y-103378000D01*
X144526000Y-103378000D01*
X144526000Y-103358000D01*
X144780000Y-103358000D01*
X144780000Y-103378000D01*
X145796000Y-103378000D01*
X145796000Y-103358000D01*
X146050000Y-103358000D01*
X146050000Y-103378000D01*
X146653250Y-103378000D01*
X146812000Y-103219250D01*
X146812000Y-102807190D01*
X146715327Y-102573801D01*
X146536698Y-102395173D01*
X146331072Y-102310000D01*
X147642375Y-102310000D01*
X147543673Y-102408701D01*
X147447000Y-102642090D01*
X147447000Y-103346250D01*
X147605750Y-103505000D01*
X148971000Y-103505000D01*
X148971000Y-103485000D01*
X149225000Y-103485000D01*
X149225000Y-103505000D01*
X149245000Y-103505000D01*
X149245000Y-103759000D01*
X149225000Y-103759000D01*
X149225000Y-103779000D01*
X148971000Y-103779000D01*
X148971000Y-103759000D01*
X147605750Y-103759000D01*
X147447000Y-103917750D01*
X147447000Y-104621910D01*
X147543673Y-104855299D01*
X147722302Y-105033927D01*
X147875780Y-105097500D01*
X147853585Y-105112330D01*
X147528729Y-105598511D01*
X147414655Y-106172000D01*
X147528729Y-106745489D01*
X147853585Y-107231670D01*
X148168366Y-107442000D01*
X147853585Y-107652330D01*
X147528729Y-108138511D01*
X147414655Y-108712000D01*
X147528729Y-109285489D01*
X147853585Y-109771670D01*
X148168366Y-109982000D01*
X147853585Y-110192330D01*
X147528729Y-110678511D01*
X147479095Y-110928037D01*
X145769440Y-112637692D01*
X145769440Y-111983428D01*
X146513434Y-111239434D01*
X146694440Y-110968540D01*
X146743416Y-110722318D01*
X146773431Y-110678390D01*
X146824440Y-110426500D01*
X146824440Y-109283500D01*
X146780162Y-109048183D01*
X146641090Y-108832059D01*
X146428890Y-108687069D01*
X146177000Y-108636060D01*
X145669000Y-108636060D01*
X145433683Y-108680338D01*
X145292629Y-108771104D01*
X145266698Y-108745173D01*
X145033309Y-108648500D01*
X144938750Y-108648500D01*
X144780000Y-108807250D01*
X144780000Y-109728000D01*
X144800000Y-109728000D01*
X144800000Y-109982000D01*
X144780000Y-109982000D01*
X144780000Y-110002000D01*
X144526000Y-110002000D01*
X144526000Y-109982000D01*
X144506000Y-109982000D01*
X144506000Y-109728000D01*
X144526000Y-109728000D01*
X144526000Y-108807250D01*
X144367250Y-108648500D01*
X144272691Y-108648500D01*
X144039302Y-108745173D01*
X144012765Y-108771709D01*
X143888890Y-108687069D01*
X143637000Y-108636060D01*
X143129000Y-108636060D01*
X142893683Y-108680338D01*
X142747093Y-108774666D01*
X142618890Y-108687069D01*
X142367000Y-108636060D01*
X141859000Y-108636060D01*
X141623683Y-108680338D01*
X141407559Y-108819410D01*
X141270502Y-109020000D01*
X141188868Y-109020000D01*
X140873974Y-108705106D01*
X140761271Y-108138511D01*
X140436415Y-107652330D01*
X140126931Y-107445539D01*
X140542732Y-107074036D01*
X140796709Y-106546791D01*
X140799358Y-106531026D01*
X140678217Y-106299000D01*
X139319000Y-106299000D01*
X139319000Y-106319000D01*
X139065000Y-106319000D01*
X139065000Y-106299000D01*
X139045000Y-106299000D01*
X139045000Y-106045000D01*
X139065000Y-106045000D01*
X139065000Y-106025000D01*
X139319000Y-106025000D01*
X139319000Y-106045000D01*
X140678217Y-106045000D01*
X140799358Y-105812974D01*
X140796709Y-105797209D01*
X140542732Y-105269964D01*
X140367155Y-105113093D01*
X140443317Y-105098762D01*
X140659441Y-104959690D01*
X140804431Y-104747490D01*
X140855440Y-104495600D01*
X140855440Y-103790750D01*
X141224000Y-103790750D01*
X141224000Y-104202810D01*
X141320673Y-104436199D01*
X141499302Y-104614827D01*
X141732691Y-104711500D01*
X141827250Y-104711500D01*
X141986000Y-104552750D01*
X141986000Y-103632000D01*
X142240000Y-103632000D01*
X142240000Y-104552750D01*
X142398750Y-104711500D01*
X142493309Y-104711500D01*
X142726698Y-104614827D01*
X142748000Y-104593525D01*
X142769302Y-104614827D01*
X143002691Y-104711500D01*
X143097250Y-104711500D01*
X143256000Y-104552750D01*
X143256000Y-103632000D01*
X143510000Y-103632000D01*
X143510000Y-104552750D01*
X143668750Y-104711500D01*
X143763309Y-104711500D01*
X143996698Y-104614827D01*
X144018000Y-104593525D01*
X144039302Y-104614827D01*
X144272691Y-104711500D01*
X144367250Y-104711500D01*
X144526000Y-104552750D01*
X144526000Y-103632000D01*
X144780000Y-103632000D01*
X144780000Y-104552750D01*
X144938750Y-104711500D01*
X145033309Y-104711500D01*
X145266698Y-104614827D01*
X145288000Y-104593525D01*
X145309302Y-104614827D01*
X145542691Y-104711500D01*
X145637250Y-104711500D01*
X145796000Y-104552750D01*
X145796000Y-103632000D01*
X146050000Y-103632000D01*
X146050000Y-104552750D01*
X146208750Y-104711500D01*
X146303309Y-104711500D01*
X146536698Y-104614827D01*
X146715327Y-104436199D01*
X146812000Y-104202810D01*
X146812000Y-103790750D01*
X146653250Y-103632000D01*
X146050000Y-103632000D01*
X145796000Y-103632000D01*
X144780000Y-103632000D01*
X144526000Y-103632000D01*
X143510000Y-103632000D01*
X143256000Y-103632000D01*
X142240000Y-103632000D01*
X141986000Y-103632000D01*
X141382750Y-103632000D01*
X141224000Y-103790750D01*
X140855440Y-103790750D01*
X140855440Y-102768400D01*
X140811162Y-102533083D01*
X140672090Y-102316959D01*
X140661905Y-102310000D01*
X141704928Y-102310000D01*
X141499302Y-102395173D01*
G36*
X161498729Y-115758511D02*
X161384655Y-116332000D01*
X161498729Y-116905489D01*
X161823585Y-117391670D01*
X162309766Y-117716526D01*
X162883255Y-117830600D01*
X163252745Y-117830600D01*
X163826234Y-117716526D01*
X164312415Y-117391670D01*
X164410518Y-117244848D01*
X164390000Y-117348000D01*
X164390000Y-119148392D01*
X164376607Y-119161785D01*
X164307143Y-118919603D01*
X163783698Y-118732856D01*
X163228632Y-118760638D01*
X162844857Y-118919603D01*
X162775392Y-119161787D01*
X163576000Y-119962395D01*
X163590143Y-119948253D01*
X163769748Y-120127858D01*
X163755605Y-120142000D01*
X163769748Y-120156143D01*
X163590143Y-120335748D01*
X163576000Y-120321605D01*
X162775392Y-121122213D01*
X162844857Y-121364397D01*
X163368302Y-121551144D01*
X163923368Y-121523362D01*
X164307143Y-121364397D01*
X164376607Y-121122215D01*
X164390000Y-121135608D01*
X164390000Y-123432570D01*
X163757610Y-123432570D01*
X163598860Y-123591320D01*
X163598860Y-124841000D01*
X163618860Y-124841000D01*
X163618860Y-125095000D01*
X163598860Y-125095000D01*
X163598860Y-126344680D01*
X163757610Y-126503430D01*
X164390000Y-126503430D01*
X164390000Y-128830000D01*
X162189149Y-128830000D01*
X162201441Y-128822090D01*
X162346431Y-128609890D01*
X162397440Y-128358000D01*
X162397440Y-126658000D01*
X162353279Y-126423304D01*
X162546721Y-126503430D01*
X163186110Y-126503430D01*
X163344860Y-126344680D01*
X163344860Y-125095000D01*
X163324860Y-125095000D01*
X163324860Y-124841000D01*
X163344860Y-124841000D01*
X163344860Y-123591320D01*
X163186110Y-123432570D01*
X162546721Y-123432570D01*
X162313332Y-123529243D01*
X162134703Y-123707871D01*
X162049454Y-123913681D01*
X162034132Y-123832253D01*
X161966464Y-123727094D01*
X162219629Y-123474370D01*
X162432757Y-122961100D01*
X162433242Y-122405339D01*
X162221010Y-121891697D01*
X161871000Y-121541075D01*
X161871000Y-119934302D01*
X162166856Y-119934302D01*
X162194638Y-120489368D01*
X162353603Y-120873143D01*
X162595787Y-120942608D01*
X163396395Y-120142000D01*
X162595787Y-119341392D01*
X162353603Y-119410857D01*
X162166856Y-119934302D01*
X161871000Y-119934302D01*
X161871000Y-119094000D01*
X161843747Y-118956990D01*
X161807440Y-118774460D01*
X161626434Y-118503566D01*
X159739440Y-116616572D01*
X159739440Y-115389000D01*
X161745629Y-115389000D01*
X161498729Y-115758511D01*
X161498729Y-115758511D01*
G37*
X161498729Y-115758511D02*
X161384655Y-116332000D01*
X161498729Y-116905489D01*
X161823585Y-117391670D01*
X162309766Y-117716526D01*
X162883255Y-117830600D01*
X163252745Y-117830600D01*
X163826234Y-117716526D01*
X164312415Y-117391670D01*
X164410518Y-117244848D01*
X164390000Y-117348000D01*
X164390000Y-119148392D01*
X164376607Y-119161785D01*
X164307143Y-118919603D01*
X163783698Y-118732856D01*
X163228632Y-118760638D01*
X162844857Y-118919603D01*
X162775392Y-119161787D01*
X163576000Y-119962395D01*
X163590143Y-119948253D01*
X163769748Y-120127858D01*
X163755605Y-120142000D01*
X163769748Y-120156143D01*
X163590143Y-120335748D01*
X163576000Y-120321605D01*
X162775392Y-121122213D01*
X162844857Y-121364397D01*
X163368302Y-121551144D01*
X163923368Y-121523362D01*
X164307143Y-121364397D01*
X164376607Y-121122215D01*
X164390000Y-121135608D01*
X164390000Y-123432570D01*
X163757610Y-123432570D01*
X163598860Y-123591320D01*
X163598860Y-124841000D01*
X163618860Y-124841000D01*
X163618860Y-125095000D01*
X163598860Y-125095000D01*
X163598860Y-126344680D01*
X163757610Y-126503430D01*
X164390000Y-126503430D01*
X164390000Y-128830000D01*
X162189149Y-128830000D01*
X162201441Y-128822090D01*
X162346431Y-128609890D01*
X162397440Y-128358000D01*
X162397440Y-126658000D01*
X162353279Y-126423304D01*
X162546721Y-126503430D01*
X163186110Y-126503430D01*
X163344860Y-126344680D01*
X163344860Y-125095000D01*
X163324860Y-125095000D01*
X163324860Y-124841000D01*
X163344860Y-124841000D01*
X163344860Y-123591320D01*
X163186110Y-123432570D01*
X162546721Y-123432570D01*
X162313332Y-123529243D01*
X162134703Y-123707871D01*
X162049454Y-123913681D01*
X162034132Y-123832253D01*
X161966464Y-123727094D01*
X162219629Y-123474370D01*
X162432757Y-122961100D01*
X162433242Y-122405339D01*
X162221010Y-121891697D01*
X161871000Y-121541075D01*
X161871000Y-119934302D01*
X162166856Y-119934302D01*
X162194638Y-120489368D01*
X162353603Y-120873143D01*
X162595787Y-120942608D01*
X163396395Y-120142000D01*
X162595787Y-119341392D01*
X162353603Y-119410857D01*
X162166856Y-119934302D01*
X161871000Y-119934302D01*
X161871000Y-119094000D01*
X161843747Y-118956990D01*
X161807440Y-118774460D01*
X161626434Y-118503566D01*
X159739440Y-116616572D01*
X159739440Y-115389000D01*
X161745629Y-115389000D01*
X161498729Y-115758511D01*
G36*
X155469302Y-102395173D02*
X155290673Y-102573801D01*
X155194000Y-102807190D01*
X155194000Y-103219250D01*
X155352750Y-103378000D01*
X155956000Y-103378000D01*
X155956000Y-103358000D01*
X156210000Y-103358000D01*
X156210000Y-103378000D01*
X157226000Y-103378000D01*
X157226000Y-103358000D01*
X157480000Y-103358000D01*
X157480000Y-103378000D01*
X158496000Y-103378000D01*
X158496000Y-103358000D01*
X158750000Y-103358000D01*
X158750000Y-103378000D01*
X159766000Y-103378000D01*
X159766000Y-103358000D01*
X160020000Y-103358000D01*
X160020000Y-103378000D01*
X160623250Y-103378000D01*
X160782000Y-103219250D01*
X160782000Y-102807190D01*
X160685327Y-102573801D01*
X160506698Y-102395173D01*
X160301072Y-102310000D01*
X161612375Y-102310000D01*
X161513673Y-102408701D01*
X161417000Y-102642090D01*
X161417000Y-103346250D01*
X161575750Y-103505000D01*
X162941000Y-103505000D01*
X162941000Y-103485000D01*
X163195000Y-103485000D01*
X163195000Y-103505000D01*
X163215000Y-103505000D01*
X163215000Y-103759000D01*
X163195000Y-103759000D01*
X163195000Y-103779000D01*
X162941000Y-103779000D01*
X162941000Y-103759000D01*
X161575750Y-103759000D01*
X161417000Y-103917750D01*
X161417000Y-104621910D01*
X161513673Y-104855299D01*
X161692302Y-105033927D01*
X161845780Y-105097500D01*
X161823585Y-105112330D01*
X161498729Y-105598511D01*
X161384655Y-106172000D01*
X161498729Y-106745489D01*
X161823585Y-107231670D01*
X162138366Y-107442000D01*
X161823585Y-107652330D01*
X161498729Y-108138511D01*
X161384655Y-108712000D01*
X161498729Y-109285489D01*
X161823585Y-109771670D01*
X162138366Y-109982000D01*
X161823585Y-110192330D01*
X161498729Y-110678511D01*
X161449095Y-110928037D01*
X159739440Y-112637692D01*
X159739440Y-111983428D01*
X160483434Y-111239434D01*
X160664440Y-110968540D01*
X160713416Y-110722318D01*
X160743431Y-110678390D01*
X160794440Y-110426500D01*
X160794440Y-109283500D01*
X160750162Y-109048183D01*
X160611090Y-108832059D01*
X160398890Y-108687069D01*
X160147000Y-108636060D01*
X159639000Y-108636060D01*
X159403683Y-108680338D01*
X159262629Y-108771104D01*
X159236698Y-108745173D01*
X159003309Y-108648500D01*
X158908750Y-108648500D01*
X158750000Y-108807250D01*
X158750000Y-109728000D01*
X158770000Y-109728000D01*
X158770000Y-109982000D01*
X158750000Y-109982000D01*
X158750000Y-110002000D01*
X158496000Y-110002000D01*
X158496000Y-109982000D01*
X158476000Y-109982000D01*
X158476000Y-109728000D01*
X158496000Y-109728000D01*
X158496000Y-108807250D01*
X158337250Y-108648500D01*
X158242691Y-108648500D01*
X158009302Y-108745173D01*
X157982765Y-108771709D01*
X157858890Y-108687069D01*
X157607000Y-108636060D01*
X157099000Y-108636060D01*
X156863683Y-108680338D01*
X156717093Y-108774666D01*
X156588890Y-108687069D01*
X156337000Y-108636060D01*
X155829000Y-108636060D01*
X155593683Y-108680338D01*
X155377559Y-108819410D01*
X155240502Y-109020000D01*
X155158868Y-109020000D01*
X154843974Y-108705106D01*
X154731271Y-108138511D01*
X154406415Y-107652330D01*
X154096931Y-107445539D01*
X154512732Y-107074036D01*
X154766709Y-106546791D01*
X154769358Y-106531026D01*
X154648217Y-106299000D01*
X153289000Y-106299000D01*
X153289000Y-106319000D01*
X153035000Y-106319000D01*
X153035000Y-106299000D01*
X153015000Y-106299000D01*
X153015000Y-106045000D01*
X153035000Y-106045000D01*
X153035000Y-106025000D01*
X153289000Y-106025000D01*
X153289000Y-106045000D01*
X154648217Y-106045000D01*
X154769358Y-105812974D01*
X154766709Y-105797209D01*
X154512732Y-105269964D01*
X154337155Y-105113093D01*
X154413317Y-105098762D01*
X154629441Y-104959690D01*
X154774431Y-104747490D01*
X154825440Y-104495600D01*
X154825440Y-103790750D01*
X155194000Y-103790750D01*
X155194000Y-104202810D01*
X155290673Y-104436199D01*
X155469302Y-104614827D01*
X155702691Y-104711500D01*
X155797250Y-104711500D01*
X155956000Y-104552750D01*
X155956000Y-103632000D01*
X156210000Y-103632000D01*
X156210000Y-104552750D01*
X156368750Y-104711500D01*
X156463309Y-104711500D01*
X156696698Y-104614827D01*
X156718000Y-104593525D01*
X156739302Y-104614827D01*
X156972691Y-104711500D01*
X157067250Y-104711500D01*
X157226000Y-104552750D01*
X157226000Y-103632000D01*
X157480000Y-103632000D01*
X157480000Y-104552750D01*
X157638750Y-104711500D01*
X157733309Y-104711500D01*
X157966698Y-104614827D01*
X157988000Y-104593525D01*
X158009302Y-104614827D01*
X158242691Y-104711500D01*
X158337250Y-104711500D01*
X158496000Y-104552750D01*
X158496000Y-103632000D01*
X158750000Y-103632000D01*
X158750000Y-104552750D01*
X158908750Y-104711500D01*
X159003309Y-104711500D01*
X159236698Y-104614827D01*
X159258000Y-104593525D01*
X159279302Y-104614827D01*
X159512691Y-104711500D01*
X159607250Y-104711500D01*
X159766000Y-104552750D01*
X159766000Y-103632000D01*
X160020000Y-103632000D01*
X160020000Y-104552750D01*
X160178750Y-104711500D01*
X160273309Y-104711500D01*
X160506698Y-104614827D01*
X160685327Y-104436199D01*
X160782000Y-104202810D01*
X160782000Y-103790750D01*
X160623250Y-103632000D01*
X160020000Y-103632000D01*
X159766000Y-103632000D01*
X158750000Y-103632000D01*
X158496000Y-103632000D01*
X157480000Y-103632000D01*
X157226000Y-103632000D01*
X156210000Y-103632000D01*
X155956000Y-103632000D01*
X155352750Y-103632000D01*
X155194000Y-103790750D01*
X154825440Y-103790750D01*
X154825440Y-102768400D01*
X154781162Y-102533083D01*
X154642090Y-102316959D01*
X154631905Y-102310000D01*
X155674928Y-102310000D01*
X155469302Y-102395173D01*
X155469302Y-102395173D01*
G37*
X155469302Y-102395173D02*
X155290673Y-102573801D01*
X155194000Y-102807190D01*
X155194000Y-103219250D01*
X155352750Y-103378000D01*
X155956000Y-103378000D01*
X155956000Y-103358000D01*
X156210000Y-103358000D01*
X156210000Y-103378000D01*
X157226000Y-103378000D01*
X157226000Y-103358000D01*
X157480000Y-103358000D01*
X157480000Y-103378000D01*
X158496000Y-103378000D01*
X158496000Y-103358000D01*
X158750000Y-103358000D01*
X158750000Y-103378000D01*
X159766000Y-103378000D01*
X159766000Y-103358000D01*
X160020000Y-103358000D01*
X160020000Y-103378000D01*
X160623250Y-103378000D01*
X160782000Y-103219250D01*
X160782000Y-102807190D01*
X160685327Y-102573801D01*
X160506698Y-102395173D01*
X160301072Y-102310000D01*
X161612375Y-102310000D01*
X161513673Y-102408701D01*
X161417000Y-102642090D01*
X161417000Y-103346250D01*
X161575750Y-103505000D01*
X162941000Y-103505000D01*
X162941000Y-103485000D01*
X163195000Y-103485000D01*
X163195000Y-103505000D01*
X163215000Y-103505000D01*
X163215000Y-103759000D01*
X163195000Y-103759000D01*
X163195000Y-103779000D01*
X162941000Y-103779000D01*
X162941000Y-103759000D01*
X161575750Y-103759000D01*
X161417000Y-103917750D01*
X161417000Y-104621910D01*
X161513673Y-104855299D01*
X161692302Y-105033927D01*
X161845780Y-105097500D01*
X161823585Y-105112330D01*
X161498729Y-105598511D01*
X161384655Y-106172000D01*
X161498729Y-106745489D01*
X161823585Y-107231670D01*
X162138366Y-107442000D01*
X161823585Y-107652330D01*
X161498729Y-108138511D01*
X161384655Y-108712000D01*
X161498729Y-109285489D01*
X161823585Y-109771670D01*
X162138366Y-109982000D01*
X161823585Y-110192330D01*
X161498729Y-110678511D01*
X161449095Y-110928037D01*
X159739440Y-112637692D01*
X159739440Y-111983428D01*
X160483434Y-111239434D01*
X160664440Y-110968540D01*
X160713416Y-110722318D01*
X160743431Y-110678390D01*
X160794440Y-110426500D01*
X160794440Y-109283500D01*
X160750162Y-109048183D01*
X160611090Y-108832059D01*
X160398890Y-108687069D01*
X160147000Y-108636060D01*
X159639000Y-108636060D01*
X159403683Y-108680338D01*
X159262629Y-108771104D01*
X159236698Y-108745173D01*
X159003309Y-108648500D01*
X158908750Y-108648500D01*
X158750000Y-108807250D01*
X158750000Y-109728000D01*
X158770000Y-109728000D01*
X158770000Y-109982000D01*
X158750000Y-109982000D01*
X158750000Y-110002000D01*
X158496000Y-110002000D01*
X158496000Y-109982000D01*
X158476000Y-109982000D01*
X158476000Y-109728000D01*
X158496000Y-109728000D01*
X158496000Y-108807250D01*
X158337250Y-108648500D01*
X158242691Y-108648500D01*
X158009302Y-108745173D01*
X157982765Y-108771709D01*
X157858890Y-108687069D01*
X157607000Y-108636060D01*
X157099000Y-108636060D01*
X156863683Y-108680338D01*
X156717093Y-108774666D01*
X156588890Y-108687069D01*
X156337000Y-108636060D01*
X155829000Y-108636060D01*
X155593683Y-108680338D01*
X155377559Y-108819410D01*
X155240502Y-109020000D01*
X155158868Y-109020000D01*
X154843974Y-108705106D01*
X154731271Y-108138511D01*
X154406415Y-107652330D01*
X154096931Y-107445539D01*
X154512732Y-107074036D01*
X154766709Y-106546791D01*
X154769358Y-106531026D01*
X154648217Y-106299000D01*
X153289000Y-106299000D01*
X153289000Y-106319000D01*
X153035000Y-106319000D01*
X153035000Y-106299000D01*
X153015000Y-106299000D01*
X153015000Y-106045000D01*
X153035000Y-106045000D01*
X153035000Y-106025000D01*
X153289000Y-106025000D01*
X153289000Y-106045000D01*
X154648217Y-106045000D01*
X154769358Y-105812974D01*
X154766709Y-105797209D01*
X154512732Y-105269964D01*
X154337155Y-105113093D01*
X154413317Y-105098762D01*
X154629441Y-104959690D01*
X154774431Y-104747490D01*
X154825440Y-104495600D01*
X154825440Y-103790750D01*
X155194000Y-103790750D01*
X155194000Y-104202810D01*
X155290673Y-104436199D01*
X155469302Y-104614827D01*
X155702691Y-104711500D01*
X155797250Y-104711500D01*
X155956000Y-104552750D01*
X155956000Y-103632000D01*
X156210000Y-103632000D01*
X156210000Y-104552750D01*
X156368750Y-104711500D01*
X156463309Y-104711500D01*
X156696698Y-104614827D01*
X156718000Y-104593525D01*
X156739302Y-104614827D01*
X156972691Y-104711500D01*
X157067250Y-104711500D01*
X157226000Y-104552750D01*
X157226000Y-103632000D01*
X157480000Y-103632000D01*
X157480000Y-104552750D01*
X157638750Y-104711500D01*
X157733309Y-104711500D01*
X157966698Y-104614827D01*
X157988000Y-104593525D01*
X158009302Y-104614827D01*
X158242691Y-104711500D01*
X158337250Y-104711500D01*
X158496000Y-104552750D01*
X158496000Y-103632000D01*
X158750000Y-103632000D01*
X158750000Y-104552750D01*
X158908750Y-104711500D01*
X159003309Y-104711500D01*
X159236698Y-104614827D01*
X159258000Y-104593525D01*
X159279302Y-104614827D01*
X159512691Y-104711500D01*
X159607250Y-104711500D01*
X159766000Y-104552750D01*
X159766000Y-103632000D01*
X160020000Y-103632000D01*
X160020000Y-104552750D01*
X160178750Y-104711500D01*
X160273309Y-104711500D01*
X160506698Y-104614827D01*
X160685327Y-104436199D01*
X160782000Y-104202810D01*
X160782000Y-103790750D01*
X160623250Y-103632000D01*
X160020000Y-103632000D01*
X159766000Y-103632000D01*
X158750000Y-103632000D01*
X158496000Y-103632000D01*
X157480000Y-103632000D01*
X157226000Y-103632000D01*
X156210000Y-103632000D01*
X155956000Y-103632000D01*
X155352750Y-103632000D01*
X155194000Y-103790750D01*
X154825440Y-103790750D01*
X154825440Y-102768400D01*
X154781162Y-102533083D01*
X154642090Y-102316959D01*
X154631905Y-102310000D01*
X155674928Y-102310000D01*
X155469302Y-102395173D01*
M02*
