M48
;DRILL file {KiCad 4.0.1+dfsg1-stable} date Wed 24 Feb 2016 10:56:16 PM CET
;FORMAT={-:-/ absolute / inch / decimal}
FMAT,2
INCH,TZ
T1C0.012
T2C0.031
T3C0.040
%
G90
G05
M72
T1
X5.55Y-4.14
X5.55Y-4.1991
X5.55Y-4.2581
X5.6091Y-4.14
X5.6091Y-4.1991
X5.6091Y-4.2581
X5.6681Y-4.14
X5.6681Y-4.1991
X5.6681Y-4.2581
X5.7272Y-4.14
X5.7272Y-4.1991
X5.7272Y-4.2581
X5.7762Y-4.5781
X5.7862Y-4.14
X5.7862Y-4.1991
X5.7862Y-4.2581
X5.7962Y-4.3281
X5.8062Y-4.6281
X5.8462Y-4.6581
X5.8562Y-4.8181
X5.8862Y-5.0281
X5.8962Y-4.6581
X5.9062Y-4.8181
X6.1Y-4.14
X6.1Y-4.1991
X6.1Y-4.2581
X6.1591Y-4.14
X6.1591Y-4.1991
X6.1591Y-4.2581
X6.2181Y-4.14
X6.2181Y-4.1991
X6.2181Y-4.2581
X6.2772Y-4.14
X6.2772Y-4.1991
X6.2772Y-4.2581
X6.3262Y-4.5781
X6.3362Y-4.14
X6.3362Y-4.1991
X6.3362Y-4.2581
X6.3462Y-4.3281
X6.3562Y-4.6281
X6.3962Y-4.6581
X6.4062Y-4.8181
X6.4362Y-5.0281
X6.4462Y-4.6581
X6.4562Y-4.8181
T2
X5.69Y-4.73
X5.79Y-4.83
X5.89Y-4.73
X6.24Y-4.73
X6.34Y-4.83
X6.44Y-4.73
T3
X5.48Y-4.08
X5.48Y-4.18
X5.48Y-4.28
X5.48Y-4.38
X5.48Y-4.48
X5.48Y-4.58
X5.48Y-4.68
X5.48Y-4.78
X5.48Y-4.88
X5.48Y-4.98
X5.87Y-4.08
X5.87Y-4.18
X5.87Y-4.28
X5.87Y-4.38
X5.87Y-4.48
X5.87Y-4.58
X6.03Y-4.08
X6.03Y-4.18
X6.03Y-4.28
X6.03Y-4.38
X6.03Y-4.48
X6.03Y-4.58
X6.03Y-4.68
X6.03Y-4.78
X6.03Y-4.88
X6.03Y-4.98
X6.42Y-4.08
X6.42Y-4.18
X6.42Y-4.28
X6.42Y-4.38
X6.42Y-4.48
X6.42Y-4.58
T0
M30
