%TF.GenerationSoftware,KiCad,Pcbnew,4.0.1+dfsg1-stable*%
%TF.CreationDate,2016-02-24T22:56:22+01:00*%
%TF.ProjectId,iotad,696F7461642E6B696361645F70636200,rev?*%
%TF.FileFunction,Copper,L2,Bot,Signal*%
%FSLAX46Y46*%
G04 Gerber Fmt 4.6, Leading zero omitted, Abs format (unit mm)*
G04 Created by KiCad (PCBNEW 4.0.1+dfsg1-stable) date Wed 24 Feb 2016 10:56:22 PM CET*
%MOMM*%
G01*
G04 APERTURE LIST*
%ADD10C,0.100000*%
%ADD11C,0.150000*%
%ADD12C,0.600000*%
%ADD13C,1.524000*%
%ADD14R,2.032000X1.727200*%
%ADD15O,2.032000X1.727200*%
%ADD16C,0.254000*%
G04 APERTURE END LIST*
D10*
D11*
X151130000Y-116332000D02*
X151130000Y-116586000D01*
X151130000Y-115316000D02*
X151130000Y-115570000D01*
X151130000Y-114300000D02*
X151130000Y-114554000D01*
X151130000Y-113538000D02*
X151130000Y-101600000D01*
X151130000Y-129540000D02*
X151130000Y-117348000D01*
X165100000Y-101600000D02*
X165100000Y-129540000D01*
X137160000Y-129540000D02*
X165100000Y-129540000D01*
X137160000Y-101600000D02*
X137160000Y-129540000D01*
X137160000Y-101600000D02*
X165100000Y-101600000D01*
D12*
X154940000Y-105156000D03*
D13*
X161036000Y-122682000D03*
X158496000Y-120142000D03*
X163576000Y-120142000D03*
D14*
X163068000Y-103632000D03*
D15*
X163068000Y-106172000D03*
X163068000Y-108712000D03*
X163068000Y-111252000D03*
X163068000Y-113792000D03*
X163068000Y-116332000D03*
D14*
X153162000Y-103632000D03*
D15*
X153162000Y-106172000D03*
X153162000Y-108712000D03*
X153162000Y-111252000D03*
X153162000Y-113792000D03*
X153162000Y-116332000D03*
X153162000Y-118872000D03*
X153162000Y-121412000D03*
X153162000Y-123952000D03*
X153162000Y-126492000D03*
D12*
X156440000Y-105156000D03*
X157940000Y-105156000D03*
X159440000Y-105156000D03*
X160940000Y-105156000D03*
X154940000Y-106656000D03*
X156440000Y-106656000D03*
X157940000Y-106656000D03*
X159440000Y-106656000D03*
X160940000Y-106656000D03*
X154940000Y-108156000D03*
X156440000Y-108156000D03*
X157940000Y-108156000D03*
X159440000Y-108156000D03*
X160940000Y-108156000D03*
X161194000Y-109934000D03*
X160686000Y-116284000D03*
X161448000Y-117554000D03*
X163734000Y-118316000D03*
X162464000Y-118316000D03*
X163988000Y-122380000D03*
X162718000Y-122380000D03*
X163480000Y-127714000D03*
X149510000Y-127714000D03*
X148748000Y-122380000D03*
X150018000Y-122380000D03*
X148494000Y-118316000D03*
X149764000Y-118316000D03*
X147478000Y-117554000D03*
X146716000Y-116284000D03*
X147224000Y-109934000D03*
X146970000Y-108156000D03*
X145470000Y-108156000D03*
X143970000Y-108156000D03*
X142470000Y-108156000D03*
X140970000Y-108156000D03*
X146970000Y-106656000D03*
X145470000Y-106656000D03*
X143970000Y-106656000D03*
X142470000Y-106656000D03*
X140970000Y-106656000D03*
X146970000Y-105156000D03*
X145470000Y-105156000D03*
X143970000Y-105156000D03*
X142470000Y-105156000D03*
D14*
X139192000Y-103632000D03*
D15*
X139192000Y-106172000D03*
X139192000Y-108712000D03*
X139192000Y-111252000D03*
X139192000Y-113792000D03*
X139192000Y-116332000D03*
X139192000Y-118872000D03*
X139192000Y-121412000D03*
X139192000Y-123952000D03*
X139192000Y-126492000D03*
D14*
X149098000Y-103632000D03*
D15*
X149098000Y-106172000D03*
X149098000Y-108712000D03*
X149098000Y-111252000D03*
X149098000Y-113792000D03*
X149098000Y-116332000D03*
D13*
X147066000Y-122682000D03*
X144526000Y-120142000D03*
X149606000Y-120142000D03*
D12*
X140970000Y-105156000D03*
D16*
G36*
X147543673Y-102408701D02*
X147447000Y-102642090D01*
X147447000Y-103346250D01*
X147605750Y-103505000D01*
X148971000Y-103505000D01*
X148971000Y-103485000D01*
X149225000Y-103485000D01*
X149225000Y-103505000D01*
X149245000Y-103505000D01*
X149245000Y-103759000D01*
X149225000Y-103759000D01*
X149225000Y-103779000D01*
X148971000Y-103779000D01*
X148971000Y-103759000D01*
X147605750Y-103759000D01*
X147447000Y-103917750D01*
X147447000Y-104621910D01*
X147543673Y-104855299D01*
X147722302Y-105033927D01*
X147875780Y-105097500D01*
X147853585Y-105112330D01*
X147528729Y-105598511D01*
X147414655Y-106172000D01*
X147528729Y-106745489D01*
X147853585Y-107231670D01*
X148168366Y-107442000D01*
X147853585Y-107652330D01*
X147528729Y-108138511D01*
X147414655Y-108712000D01*
X147528729Y-109285489D01*
X147853585Y-109771670D01*
X148168366Y-109982000D01*
X147853585Y-110192330D01*
X147528729Y-110678511D01*
X147414655Y-111252000D01*
X147528729Y-111825489D01*
X147853585Y-112311670D01*
X148168366Y-112522000D01*
X147853585Y-112732330D01*
X147528729Y-113218511D01*
X147414655Y-113792000D01*
X147528729Y-114365489D01*
X147853585Y-114851670D01*
X148168366Y-115062000D01*
X147853585Y-115272330D01*
X147528729Y-115758511D01*
X147414655Y-116332000D01*
X147528729Y-116905489D01*
X147853585Y-117391670D01*
X148339766Y-117716526D01*
X148913255Y-117830600D01*
X149282745Y-117830600D01*
X149856234Y-117716526D01*
X150342415Y-117391670D01*
X150440518Y-117244848D01*
X150420000Y-117348000D01*
X150420000Y-119148392D01*
X150406607Y-119161785D01*
X150337143Y-118919603D01*
X149813698Y-118732856D01*
X149258632Y-118760638D01*
X148874857Y-118919603D01*
X148805392Y-119161787D01*
X149606000Y-119962395D01*
X149620143Y-119948253D01*
X149799748Y-120127858D01*
X149785605Y-120142000D01*
X149799748Y-120156143D01*
X149620143Y-120335748D01*
X149606000Y-120321605D01*
X148805392Y-121122213D01*
X148874857Y-121364397D01*
X149398302Y-121551144D01*
X149953368Y-121523362D01*
X150337143Y-121364397D01*
X150406607Y-121122215D01*
X150420000Y-121135608D01*
X150420000Y-128830000D01*
X137870000Y-128830000D01*
X137870000Y-127435556D01*
X137947585Y-127551670D01*
X138433766Y-127876526D01*
X139007255Y-127990600D01*
X139376745Y-127990600D01*
X139950234Y-127876526D01*
X140436415Y-127551670D01*
X140761271Y-127065489D01*
X140875345Y-126492000D01*
X140761271Y-125918511D01*
X140436415Y-125432330D01*
X140121634Y-125222000D01*
X140436415Y-125011670D01*
X140761271Y-124525489D01*
X140875345Y-123952000D01*
X140761271Y-123378511D01*
X140480736Y-122958661D01*
X145668758Y-122958661D01*
X145880990Y-123472303D01*
X146273630Y-123865629D01*
X146786900Y-124078757D01*
X147342661Y-124079242D01*
X147856303Y-123867010D01*
X148249629Y-123474370D01*
X148462757Y-122961100D01*
X148463242Y-122405339D01*
X148251010Y-121891697D01*
X147858370Y-121498371D01*
X147345100Y-121285243D01*
X146789339Y-121284758D01*
X146275697Y-121496990D01*
X145882371Y-121889630D01*
X145669243Y-122402900D01*
X145668758Y-122958661D01*
X140480736Y-122958661D01*
X140436415Y-122892330D01*
X140121634Y-122682000D01*
X140436415Y-122471670D01*
X140761271Y-121985489D01*
X140875345Y-121412000D01*
X140761271Y-120838511D01*
X140480736Y-120418661D01*
X143128758Y-120418661D01*
X143340990Y-120932303D01*
X143733630Y-121325629D01*
X144246900Y-121538757D01*
X144802661Y-121539242D01*
X145316303Y-121327010D01*
X145709629Y-120934370D01*
X145922757Y-120421100D01*
X145923181Y-119934302D01*
X148196856Y-119934302D01*
X148224638Y-120489368D01*
X148383603Y-120873143D01*
X148625787Y-120942608D01*
X149426395Y-120142000D01*
X148625787Y-119341392D01*
X148383603Y-119410857D01*
X148196856Y-119934302D01*
X145923181Y-119934302D01*
X145923242Y-119865339D01*
X145711010Y-119351697D01*
X145318370Y-118958371D01*
X144805100Y-118745243D01*
X144249339Y-118744758D01*
X143735697Y-118956990D01*
X143342371Y-119349630D01*
X143129243Y-119862900D01*
X143128758Y-120418661D01*
X140480736Y-120418661D01*
X140436415Y-120352330D01*
X140121634Y-120142000D01*
X140436415Y-119931670D01*
X140761271Y-119445489D01*
X140875345Y-118872000D01*
X140761271Y-118298511D01*
X140436415Y-117812330D01*
X140121634Y-117602000D01*
X140436415Y-117391670D01*
X140761271Y-116905489D01*
X140875345Y-116332000D01*
X140761271Y-115758511D01*
X140436415Y-115272330D01*
X140121634Y-115062000D01*
X140436415Y-114851670D01*
X140761271Y-114365489D01*
X140875345Y-113792000D01*
X140761271Y-113218511D01*
X140436415Y-112732330D01*
X140121634Y-112522000D01*
X140436415Y-112311670D01*
X140761271Y-111825489D01*
X140875345Y-111252000D01*
X140761271Y-110678511D01*
X140436415Y-110192330D01*
X140121634Y-109982000D01*
X140436415Y-109771670D01*
X140761271Y-109285489D01*
X140875345Y-108712000D01*
X140761271Y-108138511D01*
X140436415Y-107652330D01*
X140126931Y-107445539D01*
X140542732Y-107074036D01*
X140796709Y-106546791D01*
X140799358Y-106531026D01*
X140678217Y-106299000D01*
X139319000Y-106299000D01*
X139319000Y-106319000D01*
X139065000Y-106319000D01*
X139065000Y-106299000D01*
X139045000Y-106299000D01*
X139045000Y-106045000D01*
X139065000Y-106045000D01*
X139065000Y-106025000D01*
X139319000Y-106025000D01*
X139319000Y-106045000D01*
X140678217Y-106045000D01*
X140799358Y-105812974D01*
X140796709Y-105797209D01*
X140542732Y-105269964D01*
X140367155Y-105113093D01*
X140443317Y-105098762D01*
X140659441Y-104959690D01*
X140804431Y-104747490D01*
X140855440Y-104495600D01*
X140855440Y-102768400D01*
X140811162Y-102533083D01*
X140672090Y-102316959D01*
X140661905Y-102310000D01*
X147642375Y-102310000D01*
X147543673Y-102408701D01*
X147543673Y-102408701D01*
G37*
X147543673Y-102408701D02*
X147447000Y-102642090D01*
X147447000Y-103346250D01*
X147605750Y-103505000D01*
X148971000Y-103505000D01*
X148971000Y-103485000D01*
X149225000Y-103485000D01*
X149225000Y-103505000D01*
X149245000Y-103505000D01*
X149245000Y-103759000D01*
X149225000Y-103759000D01*
X149225000Y-103779000D01*
X148971000Y-103779000D01*
X148971000Y-103759000D01*
X147605750Y-103759000D01*
X147447000Y-103917750D01*
X147447000Y-104621910D01*
X147543673Y-104855299D01*
X147722302Y-105033927D01*
X147875780Y-105097500D01*
X147853585Y-105112330D01*
X147528729Y-105598511D01*
X147414655Y-106172000D01*
X147528729Y-106745489D01*
X147853585Y-107231670D01*
X148168366Y-107442000D01*
X147853585Y-107652330D01*
X147528729Y-108138511D01*
X147414655Y-108712000D01*
X147528729Y-109285489D01*
X147853585Y-109771670D01*
X148168366Y-109982000D01*
X147853585Y-110192330D01*
X147528729Y-110678511D01*
X147414655Y-111252000D01*
X147528729Y-111825489D01*
X147853585Y-112311670D01*
X148168366Y-112522000D01*
X147853585Y-112732330D01*
X147528729Y-113218511D01*
X147414655Y-113792000D01*
X147528729Y-114365489D01*
X147853585Y-114851670D01*
X148168366Y-115062000D01*
X147853585Y-115272330D01*
X147528729Y-115758511D01*
X147414655Y-116332000D01*
X147528729Y-116905489D01*
X147853585Y-117391670D01*
X148339766Y-117716526D01*
X148913255Y-117830600D01*
X149282745Y-117830600D01*
X149856234Y-117716526D01*
X150342415Y-117391670D01*
X150440518Y-117244848D01*
X150420000Y-117348000D01*
X150420000Y-119148392D01*
X150406607Y-119161785D01*
X150337143Y-118919603D01*
X149813698Y-118732856D01*
X149258632Y-118760638D01*
X148874857Y-118919603D01*
X148805392Y-119161787D01*
X149606000Y-119962395D01*
X149620143Y-119948253D01*
X149799748Y-120127858D01*
X149785605Y-120142000D01*
X149799748Y-120156143D01*
X149620143Y-120335748D01*
X149606000Y-120321605D01*
X148805392Y-121122213D01*
X148874857Y-121364397D01*
X149398302Y-121551144D01*
X149953368Y-121523362D01*
X150337143Y-121364397D01*
X150406607Y-121122215D01*
X150420000Y-121135608D01*
X150420000Y-128830000D01*
X137870000Y-128830000D01*
X137870000Y-127435556D01*
X137947585Y-127551670D01*
X138433766Y-127876526D01*
X139007255Y-127990600D01*
X139376745Y-127990600D01*
X139950234Y-127876526D01*
X140436415Y-127551670D01*
X140761271Y-127065489D01*
X140875345Y-126492000D01*
X140761271Y-125918511D01*
X140436415Y-125432330D01*
X140121634Y-125222000D01*
X140436415Y-125011670D01*
X140761271Y-124525489D01*
X140875345Y-123952000D01*
X140761271Y-123378511D01*
X140480736Y-122958661D01*
X145668758Y-122958661D01*
X145880990Y-123472303D01*
X146273630Y-123865629D01*
X146786900Y-124078757D01*
X147342661Y-124079242D01*
X147856303Y-123867010D01*
X148249629Y-123474370D01*
X148462757Y-122961100D01*
X148463242Y-122405339D01*
X148251010Y-121891697D01*
X147858370Y-121498371D01*
X147345100Y-121285243D01*
X146789339Y-121284758D01*
X146275697Y-121496990D01*
X145882371Y-121889630D01*
X145669243Y-122402900D01*
X145668758Y-122958661D01*
X140480736Y-122958661D01*
X140436415Y-122892330D01*
X140121634Y-122682000D01*
X140436415Y-122471670D01*
X140761271Y-121985489D01*
X140875345Y-121412000D01*
X140761271Y-120838511D01*
X140480736Y-120418661D01*
X143128758Y-120418661D01*
X143340990Y-120932303D01*
X143733630Y-121325629D01*
X144246900Y-121538757D01*
X144802661Y-121539242D01*
X145316303Y-121327010D01*
X145709629Y-120934370D01*
X145922757Y-120421100D01*
X145923181Y-119934302D01*
X148196856Y-119934302D01*
X148224638Y-120489368D01*
X148383603Y-120873143D01*
X148625787Y-120942608D01*
X149426395Y-120142000D01*
X148625787Y-119341392D01*
X148383603Y-119410857D01*
X148196856Y-119934302D01*
X145923181Y-119934302D01*
X145923242Y-119865339D01*
X145711010Y-119351697D01*
X145318370Y-118958371D01*
X144805100Y-118745243D01*
X144249339Y-118744758D01*
X143735697Y-118956990D01*
X143342371Y-119349630D01*
X143129243Y-119862900D01*
X143128758Y-120418661D01*
X140480736Y-120418661D01*
X140436415Y-120352330D01*
X140121634Y-120142000D01*
X140436415Y-119931670D01*
X140761271Y-119445489D01*
X140875345Y-118872000D01*
X140761271Y-118298511D01*
X140436415Y-117812330D01*
X140121634Y-117602000D01*
X140436415Y-117391670D01*
X140761271Y-116905489D01*
X140875345Y-116332000D01*
X140761271Y-115758511D01*
X140436415Y-115272330D01*
X140121634Y-115062000D01*
X140436415Y-114851670D01*
X140761271Y-114365489D01*
X140875345Y-113792000D01*
X140761271Y-113218511D01*
X140436415Y-112732330D01*
X140121634Y-112522000D01*
X140436415Y-112311670D01*
X140761271Y-111825489D01*
X140875345Y-111252000D01*
X140761271Y-110678511D01*
X140436415Y-110192330D01*
X140121634Y-109982000D01*
X140436415Y-109771670D01*
X140761271Y-109285489D01*
X140875345Y-108712000D01*
X140761271Y-108138511D01*
X140436415Y-107652330D01*
X140126931Y-107445539D01*
X140542732Y-107074036D01*
X140796709Y-106546791D01*
X140799358Y-106531026D01*
X140678217Y-106299000D01*
X139319000Y-106299000D01*
X139319000Y-106319000D01*
X139065000Y-106319000D01*
X139065000Y-106299000D01*
X139045000Y-106299000D01*
X139045000Y-106045000D01*
X139065000Y-106045000D01*
X139065000Y-106025000D01*
X139319000Y-106025000D01*
X139319000Y-106045000D01*
X140678217Y-106045000D01*
X140799358Y-105812974D01*
X140796709Y-105797209D01*
X140542732Y-105269964D01*
X140367155Y-105113093D01*
X140443317Y-105098762D01*
X140659441Y-104959690D01*
X140804431Y-104747490D01*
X140855440Y-104495600D01*
X140855440Y-102768400D01*
X140811162Y-102533083D01*
X140672090Y-102316959D01*
X140661905Y-102310000D01*
X147642375Y-102310000D01*
X147543673Y-102408701D01*
G36*
X161513673Y-102408701D02*
X161417000Y-102642090D01*
X161417000Y-103346250D01*
X161575750Y-103505000D01*
X162941000Y-103505000D01*
X162941000Y-103485000D01*
X163195000Y-103485000D01*
X163195000Y-103505000D01*
X163215000Y-103505000D01*
X163215000Y-103759000D01*
X163195000Y-103759000D01*
X163195000Y-103779000D01*
X162941000Y-103779000D01*
X162941000Y-103759000D01*
X161575750Y-103759000D01*
X161417000Y-103917750D01*
X161417000Y-104621910D01*
X161513673Y-104855299D01*
X161692302Y-105033927D01*
X161845780Y-105097500D01*
X161823585Y-105112330D01*
X161498729Y-105598511D01*
X161384655Y-106172000D01*
X161498729Y-106745489D01*
X161823585Y-107231670D01*
X162138366Y-107442000D01*
X161823585Y-107652330D01*
X161498729Y-108138511D01*
X161384655Y-108712000D01*
X161498729Y-109285489D01*
X161823585Y-109771670D01*
X162138366Y-109982000D01*
X161823585Y-110192330D01*
X161498729Y-110678511D01*
X161384655Y-111252000D01*
X161498729Y-111825489D01*
X161823585Y-112311670D01*
X162138366Y-112522000D01*
X161823585Y-112732330D01*
X161498729Y-113218511D01*
X161384655Y-113792000D01*
X161498729Y-114365489D01*
X161823585Y-114851670D01*
X162138366Y-115062000D01*
X161823585Y-115272330D01*
X161498729Y-115758511D01*
X161384655Y-116332000D01*
X161498729Y-116905489D01*
X161823585Y-117391670D01*
X162309766Y-117716526D01*
X162883255Y-117830600D01*
X163252745Y-117830600D01*
X163826234Y-117716526D01*
X164312415Y-117391670D01*
X164410518Y-117244848D01*
X164390000Y-117348000D01*
X164390000Y-119148392D01*
X164376607Y-119161785D01*
X164307143Y-118919603D01*
X163783698Y-118732856D01*
X163228632Y-118760638D01*
X162844857Y-118919603D01*
X162775392Y-119161787D01*
X163576000Y-119962395D01*
X163590143Y-119948253D01*
X163769748Y-120127858D01*
X163755605Y-120142000D01*
X163769748Y-120156143D01*
X163590143Y-120335748D01*
X163576000Y-120321605D01*
X162775392Y-121122213D01*
X162844857Y-121364397D01*
X163368302Y-121551144D01*
X163923368Y-121523362D01*
X164307143Y-121364397D01*
X164376607Y-121122215D01*
X164390000Y-121135608D01*
X164390000Y-128830000D01*
X151840000Y-128830000D01*
X151840000Y-127435556D01*
X151917585Y-127551670D01*
X152403766Y-127876526D01*
X152977255Y-127990600D01*
X153346745Y-127990600D01*
X153920234Y-127876526D01*
X154406415Y-127551670D01*
X154731271Y-127065489D01*
X154845345Y-126492000D01*
X154731271Y-125918511D01*
X154406415Y-125432330D01*
X154091634Y-125222000D01*
X154406415Y-125011670D01*
X154731271Y-124525489D01*
X154845345Y-123952000D01*
X154731271Y-123378511D01*
X154450736Y-122958661D01*
X159638758Y-122958661D01*
X159850990Y-123472303D01*
X160243630Y-123865629D01*
X160756900Y-124078757D01*
X161312661Y-124079242D01*
X161826303Y-123867010D01*
X162219629Y-123474370D01*
X162432757Y-122961100D01*
X162433242Y-122405339D01*
X162221010Y-121891697D01*
X161828370Y-121498371D01*
X161315100Y-121285243D01*
X160759339Y-121284758D01*
X160245697Y-121496990D01*
X159852371Y-121889630D01*
X159639243Y-122402900D01*
X159638758Y-122958661D01*
X154450736Y-122958661D01*
X154406415Y-122892330D01*
X154091634Y-122682000D01*
X154406415Y-122471670D01*
X154731271Y-121985489D01*
X154845345Y-121412000D01*
X154731271Y-120838511D01*
X154450736Y-120418661D01*
X157098758Y-120418661D01*
X157310990Y-120932303D01*
X157703630Y-121325629D01*
X158216900Y-121538757D01*
X158772661Y-121539242D01*
X159286303Y-121327010D01*
X159679629Y-120934370D01*
X159892757Y-120421100D01*
X159893181Y-119934302D01*
X162166856Y-119934302D01*
X162194638Y-120489368D01*
X162353603Y-120873143D01*
X162595787Y-120942608D01*
X163396395Y-120142000D01*
X162595787Y-119341392D01*
X162353603Y-119410857D01*
X162166856Y-119934302D01*
X159893181Y-119934302D01*
X159893242Y-119865339D01*
X159681010Y-119351697D01*
X159288370Y-118958371D01*
X158775100Y-118745243D01*
X158219339Y-118744758D01*
X157705697Y-118956990D01*
X157312371Y-119349630D01*
X157099243Y-119862900D01*
X157098758Y-120418661D01*
X154450736Y-120418661D01*
X154406415Y-120352330D01*
X154091634Y-120142000D01*
X154406415Y-119931670D01*
X154731271Y-119445489D01*
X154845345Y-118872000D01*
X154731271Y-118298511D01*
X154406415Y-117812330D01*
X154091634Y-117602000D01*
X154406415Y-117391670D01*
X154731271Y-116905489D01*
X154845345Y-116332000D01*
X154731271Y-115758511D01*
X154406415Y-115272330D01*
X154091634Y-115062000D01*
X154406415Y-114851670D01*
X154731271Y-114365489D01*
X154845345Y-113792000D01*
X154731271Y-113218511D01*
X154406415Y-112732330D01*
X154091634Y-112522000D01*
X154406415Y-112311670D01*
X154731271Y-111825489D01*
X154845345Y-111252000D01*
X154731271Y-110678511D01*
X154406415Y-110192330D01*
X154091634Y-109982000D01*
X154406415Y-109771670D01*
X154731271Y-109285489D01*
X154845345Y-108712000D01*
X154731271Y-108138511D01*
X154406415Y-107652330D01*
X154096931Y-107445539D01*
X154512732Y-107074036D01*
X154766709Y-106546791D01*
X154769358Y-106531026D01*
X154648217Y-106299000D01*
X153289000Y-106299000D01*
X153289000Y-106319000D01*
X153035000Y-106319000D01*
X153035000Y-106299000D01*
X153015000Y-106299000D01*
X153015000Y-106045000D01*
X153035000Y-106045000D01*
X153035000Y-106025000D01*
X153289000Y-106025000D01*
X153289000Y-106045000D01*
X154648217Y-106045000D01*
X154769358Y-105812974D01*
X154766709Y-105797209D01*
X154512732Y-105269964D01*
X154337155Y-105113093D01*
X154413317Y-105098762D01*
X154629441Y-104959690D01*
X154774431Y-104747490D01*
X154825440Y-104495600D01*
X154825440Y-102768400D01*
X154781162Y-102533083D01*
X154642090Y-102316959D01*
X154631905Y-102310000D01*
X161612375Y-102310000D01*
X161513673Y-102408701D01*
X161513673Y-102408701D01*
G37*
X161513673Y-102408701D02*
X161417000Y-102642090D01*
X161417000Y-103346250D01*
X161575750Y-103505000D01*
X162941000Y-103505000D01*
X162941000Y-103485000D01*
X163195000Y-103485000D01*
X163195000Y-103505000D01*
X163215000Y-103505000D01*
X163215000Y-103759000D01*
X163195000Y-103759000D01*
X163195000Y-103779000D01*
X162941000Y-103779000D01*
X162941000Y-103759000D01*
X161575750Y-103759000D01*
X161417000Y-103917750D01*
X161417000Y-104621910D01*
X161513673Y-104855299D01*
X161692302Y-105033927D01*
X161845780Y-105097500D01*
X161823585Y-105112330D01*
X161498729Y-105598511D01*
X161384655Y-106172000D01*
X161498729Y-106745489D01*
X161823585Y-107231670D01*
X162138366Y-107442000D01*
X161823585Y-107652330D01*
X161498729Y-108138511D01*
X161384655Y-108712000D01*
X161498729Y-109285489D01*
X161823585Y-109771670D01*
X162138366Y-109982000D01*
X161823585Y-110192330D01*
X161498729Y-110678511D01*
X161384655Y-111252000D01*
X161498729Y-111825489D01*
X161823585Y-112311670D01*
X162138366Y-112522000D01*
X161823585Y-112732330D01*
X161498729Y-113218511D01*
X161384655Y-113792000D01*
X161498729Y-114365489D01*
X161823585Y-114851670D01*
X162138366Y-115062000D01*
X161823585Y-115272330D01*
X161498729Y-115758511D01*
X161384655Y-116332000D01*
X161498729Y-116905489D01*
X161823585Y-117391670D01*
X162309766Y-117716526D01*
X162883255Y-117830600D01*
X163252745Y-117830600D01*
X163826234Y-117716526D01*
X164312415Y-117391670D01*
X164410518Y-117244848D01*
X164390000Y-117348000D01*
X164390000Y-119148392D01*
X164376607Y-119161785D01*
X164307143Y-118919603D01*
X163783698Y-118732856D01*
X163228632Y-118760638D01*
X162844857Y-118919603D01*
X162775392Y-119161787D01*
X163576000Y-119962395D01*
X163590143Y-119948253D01*
X163769748Y-120127858D01*
X163755605Y-120142000D01*
X163769748Y-120156143D01*
X163590143Y-120335748D01*
X163576000Y-120321605D01*
X162775392Y-121122213D01*
X162844857Y-121364397D01*
X163368302Y-121551144D01*
X163923368Y-121523362D01*
X164307143Y-121364397D01*
X164376607Y-121122215D01*
X164390000Y-121135608D01*
X164390000Y-128830000D01*
X151840000Y-128830000D01*
X151840000Y-127435556D01*
X151917585Y-127551670D01*
X152403766Y-127876526D01*
X152977255Y-127990600D01*
X153346745Y-127990600D01*
X153920234Y-127876526D01*
X154406415Y-127551670D01*
X154731271Y-127065489D01*
X154845345Y-126492000D01*
X154731271Y-125918511D01*
X154406415Y-125432330D01*
X154091634Y-125222000D01*
X154406415Y-125011670D01*
X154731271Y-124525489D01*
X154845345Y-123952000D01*
X154731271Y-123378511D01*
X154450736Y-122958661D01*
X159638758Y-122958661D01*
X159850990Y-123472303D01*
X160243630Y-123865629D01*
X160756900Y-124078757D01*
X161312661Y-124079242D01*
X161826303Y-123867010D01*
X162219629Y-123474370D01*
X162432757Y-122961100D01*
X162433242Y-122405339D01*
X162221010Y-121891697D01*
X161828370Y-121498371D01*
X161315100Y-121285243D01*
X160759339Y-121284758D01*
X160245697Y-121496990D01*
X159852371Y-121889630D01*
X159639243Y-122402900D01*
X159638758Y-122958661D01*
X154450736Y-122958661D01*
X154406415Y-122892330D01*
X154091634Y-122682000D01*
X154406415Y-122471670D01*
X154731271Y-121985489D01*
X154845345Y-121412000D01*
X154731271Y-120838511D01*
X154450736Y-120418661D01*
X157098758Y-120418661D01*
X157310990Y-120932303D01*
X157703630Y-121325629D01*
X158216900Y-121538757D01*
X158772661Y-121539242D01*
X159286303Y-121327010D01*
X159679629Y-120934370D01*
X159892757Y-120421100D01*
X159893181Y-119934302D01*
X162166856Y-119934302D01*
X162194638Y-120489368D01*
X162353603Y-120873143D01*
X162595787Y-120942608D01*
X163396395Y-120142000D01*
X162595787Y-119341392D01*
X162353603Y-119410857D01*
X162166856Y-119934302D01*
X159893181Y-119934302D01*
X159893242Y-119865339D01*
X159681010Y-119351697D01*
X159288370Y-118958371D01*
X158775100Y-118745243D01*
X158219339Y-118744758D01*
X157705697Y-118956990D01*
X157312371Y-119349630D01*
X157099243Y-119862900D01*
X157098758Y-120418661D01*
X154450736Y-120418661D01*
X154406415Y-120352330D01*
X154091634Y-120142000D01*
X154406415Y-119931670D01*
X154731271Y-119445489D01*
X154845345Y-118872000D01*
X154731271Y-118298511D01*
X154406415Y-117812330D01*
X154091634Y-117602000D01*
X154406415Y-117391670D01*
X154731271Y-116905489D01*
X154845345Y-116332000D01*
X154731271Y-115758511D01*
X154406415Y-115272330D01*
X154091634Y-115062000D01*
X154406415Y-114851670D01*
X154731271Y-114365489D01*
X154845345Y-113792000D01*
X154731271Y-113218511D01*
X154406415Y-112732330D01*
X154091634Y-112522000D01*
X154406415Y-112311670D01*
X154731271Y-111825489D01*
X154845345Y-111252000D01*
X154731271Y-110678511D01*
X154406415Y-110192330D01*
X154091634Y-109982000D01*
X154406415Y-109771670D01*
X154731271Y-109285489D01*
X154845345Y-108712000D01*
X154731271Y-108138511D01*
X154406415Y-107652330D01*
X154096931Y-107445539D01*
X154512732Y-107074036D01*
X154766709Y-106546791D01*
X154769358Y-106531026D01*
X154648217Y-106299000D01*
X153289000Y-106299000D01*
X153289000Y-106319000D01*
X153035000Y-106319000D01*
X153035000Y-106299000D01*
X153015000Y-106299000D01*
X153015000Y-106045000D01*
X153035000Y-106045000D01*
X153035000Y-106025000D01*
X153289000Y-106025000D01*
X153289000Y-106045000D01*
X154648217Y-106045000D01*
X154769358Y-105812974D01*
X154766709Y-105797209D01*
X154512732Y-105269964D01*
X154337155Y-105113093D01*
X154413317Y-105098762D01*
X154629441Y-104959690D01*
X154774431Y-104747490D01*
X154825440Y-104495600D01*
X154825440Y-102768400D01*
X154781162Y-102533083D01*
X154642090Y-102316959D01*
X154631905Y-102310000D01*
X161612375Y-102310000D01*
X161513673Y-102408701D01*
M02*
