%TF.GenerationSoftware,KiCad,Pcbnew,4.0.1+dfsg1-stable*%
%TF.CreationDate,2016-02-24T22:56:22+01:00*%
%TF.ProjectId,iotad,696F7461642E6B696361645F70636200,rev?*%
%TF.FileFunction,Legend,Bot*%
%FSLAX46Y46*%
G04 Gerber Fmt 4.6, Leading zero omitted, Abs format (unit mm)*
G04 Created by KiCad (PCBNEW 4.0.1+dfsg1-stable) date Wed 24 Feb 2016 10:56:22 PM CET*
%MOMM*%
G01*
G04 APERTURE LIST*
%ADD10C,0.100000*%
%ADD11C,0.200000*%
%ADD12C,0.125000*%
%ADD13C,0.150000*%
%ADD14C,1.924000*%
%ADD15R,2.432000X2.127200*%
%ADD16O,2.432000X2.127200*%
G04 APERTURE END LIST*
D10*
D11*
X162229429Y-127209905D02*
X162229429Y-126409905D01*
X161734191Y-127209905D02*
X161810382Y-127171810D01*
X161848477Y-127133714D01*
X161886572Y-127057524D01*
X161886572Y-126828952D01*
X161848477Y-126752762D01*
X161810382Y-126714667D01*
X161734191Y-126676571D01*
X161619905Y-126676571D01*
X161543715Y-126714667D01*
X161505620Y-126752762D01*
X161467524Y-126828952D01*
X161467524Y-127057524D01*
X161505620Y-127133714D01*
X161543715Y-127171810D01*
X161619905Y-127209905D01*
X161734191Y-127209905D01*
X161238953Y-126409905D02*
X160781810Y-126409905D01*
X161010381Y-127209905D02*
X161010381Y-126409905D01*
X160553238Y-126981333D02*
X160172286Y-126981333D01*
X160629429Y-127209905D02*
X160362762Y-126409905D01*
X160096095Y-127209905D01*
X159829429Y-127209905D02*
X159829429Y-126409905D01*
X159638953Y-126409905D01*
X159524667Y-126448000D01*
X159448476Y-126524190D01*
X159410381Y-126600381D01*
X159372286Y-126752762D01*
X159372286Y-126867048D01*
X159410381Y-127019429D01*
X159448476Y-127095619D01*
X159524667Y-127171810D01*
X159638953Y-127209905D01*
X159829429Y-127209905D01*
X158496095Y-126676571D02*
X158305619Y-127209905D01*
X158115143Y-126676571D01*
X157391333Y-127209905D02*
X157848476Y-127209905D01*
X157619905Y-127209905D02*
X157619905Y-126409905D01*
X157696095Y-126524190D01*
X157772286Y-126600381D01*
X157848476Y-126638476D01*
X157048476Y-127133714D02*
X157010381Y-127171810D01*
X157048476Y-127209905D01*
X157086571Y-127171810D01*
X157048476Y-127133714D01*
X157048476Y-127209905D01*
X156705619Y-126486095D02*
X156667524Y-126448000D01*
X156591333Y-126409905D01*
X156400857Y-126409905D01*
X156324667Y-126448000D01*
X156286571Y-126486095D01*
X156248476Y-126562286D01*
X156248476Y-126638476D01*
X156286571Y-126752762D01*
X156743714Y-127209905D01*
X156248476Y-127209905D01*
X164343715Y-127806095D02*
X164305620Y-127768000D01*
X164229429Y-127729905D01*
X164038953Y-127729905D01*
X163962763Y-127768000D01*
X163924667Y-127806095D01*
X163886572Y-127882286D01*
X163886572Y-127958476D01*
X163924667Y-128072762D01*
X164381810Y-128529905D01*
X163886572Y-128529905D01*
X163200858Y-127996571D02*
X163200858Y-128529905D01*
X163391334Y-127691810D02*
X163581810Y-128263238D01*
X163086572Y-128263238D01*
X162210381Y-127691810D02*
X162896096Y-128720381D01*
X161791334Y-127729905D02*
X161715143Y-127729905D01*
X161638953Y-127768000D01*
X161600858Y-127806095D01*
X161562762Y-127882286D01*
X161524667Y-128034667D01*
X161524667Y-128225143D01*
X161562762Y-128377524D01*
X161600858Y-128453714D01*
X161638953Y-128491810D01*
X161715143Y-128529905D01*
X161791334Y-128529905D01*
X161867524Y-128491810D01*
X161905620Y-128453714D01*
X161943715Y-128377524D01*
X161981810Y-128225143D01*
X161981810Y-128034667D01*
X161943715Y-127882286D01*
X161905620Y-127806095D01*
X161867524Y-127768000D01*
X161791334Y-127729905D01*
X161219905Y-127806095D02*
X161181810Y-127768000D01*
X161105619Y-127729905D01*
X160915143Y-127729905D01*
X160838953Y-127768000D01*
X160800857Y-127806095D01*
X160762762Y-127882286D01*
X160762762Y-127958476D01*
X160800857Y-128072762D01*
X161258000Y-128529905D01*
X160762762Y-128529905D01*
X159848476Y-127691810D02*
X160534191Y-128720381D01*
X159619905Y-127806095D02*
X159581810Y-127768000D01*
X159505619Y-127729905D01*
X159315143Y-127729905D01*
X159238953Y-127768000D01*
X159200857Y-127806095D01*
X159162762Y-127882286D01*
X159162762Y-127958476D01*
X159200857Y-128072762D01*
X159658000Y-128529905D01*
X159162762Y-128529905D01*
X158667524Y-127729905D02*
X158591333Y-127729905D01*
X158515143Y-127768000D01*
X158477048Y-127806095D01*
X158438952Y-127882286D01*
X158400857Y-128034667D01*
X158400857Y-128225143D01*
X158438952Y-128377524D01*
X158477048Y-128453714D01*
X158515143Y-128491810D01*
X158591333Y-128529905D01*
X158667524Y-128529905D01*
X158743714Y-128491810D01*
X158781810Y-128453714D01*
X158819905Y-128377524D01*
X158858000Y-128225143D01*
X158858000Y-128034667D01*
X158819905Y-127882286D01*
X158781810Y-127806095D01*
X158743714Y-127768000D01*
X158667524Y-127729905D01*
X157638952Y-128529905D02*
X158096095Y-128529905D01*
X157867524Y-128529905D02*
X157867524Y-127729905D01*
X157943714Y-127844190D01*
X158019905Y-127920381D01*
X158096095Y-127958476D01*
X156953238Y-127729905D02*
X157105619Y-127729905D01*
X157181809Y-127768000D01*
X157219904Y-127806095D01*
X157296095Y-127920381D01*
X157334190Y-128072762D01*
X157334190Y-128377524D01*
X157296095Y-128453714D01*
X157258000Y-128491810D01*
X157181809Y-128529905D01*
X157029428Y-128529905D01*
X156953238Y-128491810D01*
X156915142Y-128453714D01*
X156877047Y-128377524D01*
X156877047Y-128187048D01*
X156915142Y-128110857D01*
X156953238Y-128072762D01*
X157029428Y-128034667D01*
X157181809Y-128034667D01*
X157258000Y-128072762D01*
X157296095Y-128110857D01*
X157334190Y-128187048D01*
X155696094Y-127729905D02*
X155696094Y-128301333D01*
X155734190Y-128415619D01*
X155810380Y-128491810D01*
X155924666Y-128529905D01*
X156000856Y-128529905D01*
X154896094Y-127768000D02*
X154972285Y-127729905D01*
X155086570Y-127729905D01*
X155200856Y-127768000D01*
X155277047Y-127844190D01*
X155315142Y-127920381D01*
X155353237Y-128072762D01*
X155353237Y-128187048D01*
X155315142Y-128339429D01*
X155277047Y-128415619D01*
X155200856Y-128491810D01*
X155086570Y-128529905D01*
X155010380Y-128529905D01*
X154896094Y-128491810D01*
X154857999Y-128453714D01*
X154857999Y-128187048D01*
X155010380Y-128187048D01*
X154629428Y-127729905D02*
X154362761Y-128529905D01*
X154096094Y-127729905D01*
D12*
X160829619Y-111478190D02*
X160996286Y-111240095D01*
X161115333Y-111478190D02*
X161115333Y-110978190D01*
X160924857Y-110978190D01*
X160877238Y-111002000D01*
X160853429Y-111025810D01*
X160829619Y-111073429D01*
X160829619Y-111144857D01*
X160853429Y-111192476D01*
X160877238Y-111216286D01*
X160924857Y-111240095D01*
X161115333Y-111240095D01*
X160662952Y-111478190D02*
X160401048Y-111144857D01*
X160662952Y-111144857D02*
X160401048Y-111478190D01*
X155495619Y-119098190D02*
X155662286Y-118860095D01*
X155781333Y-119098190D02*
X155781333Y-118598190D01*
X155590857Y-118598190D01*
X155543238Y-118622000D01*
X155519429Y-118645810D01*
X155495619Y-118693429D01*
X155495619Y-118764857D01*
X155519429Y-118812476D01*
X155543238Y-118836286D01*
X155590857Y-118860095D01*
X155781333Y-118860095D01*
X155328952Y-119098190D02*
X155067048Y-118764857D01*
X155328952Y-118764857D02*
X155067048Y-119098190D01*
X161127238Y-113518190D02*
X160841524Y-113518190D01*
X160984381Y-114018190D02*
X160984381Y-113518190D01*
X160722476Y-114018190D02*
X160460572Y-113684857D01*
X160722476Y-113684857D02*
X160460572Y-114018190D01*
X155793238Y-121392190D02*
X155507524Y-121392190D01*
X155650381Y-121892190D02*
X155650381Y-121392190D01*
X155388476Y-121892190D02*
X155126572Y-121558857D01*
X155388476Y-121558857D02*
X155126572Y-121892190D01*
X157579047Y-123678190D02*
X157293333Y-123678190D01*
X157436190Y-124178190D02*
X157436190Y-123678190D01*
X157055238Y-123678190D02*
X157102857Y-123702000D01*
X157126666Y-123749619D01*
X157102857Y-123797238D01*
X157055238Y-123821048D01*
X157007619Y-123797238D01*
X156983809Y-123749619D01*
X157007619Y-123702000D01*
X157055238Y-123678190D01*
X156364762Y-124178190D02*
X156364762Y-123678190D01*
X156245715Y-123678190D01*
X156174286Y-123702000D01*
X156126667Y-123749619D01*
X156102858Y-123797238D01*
X156079048Y-123892476D01*
X156079048Y-123963905D01*
X156102858Y-124059143D01*
X156126667Y-124106762D01*
X156174286Y-124154381D01*
X156245715Y-124178190D01*
X156364762Y-124178190D01*
X155650477Y-124178190D02*
X155650477Y-123916286D01*
X155674286Y-123868667D01*
X155721905Y-123844857D01*
X155817143Y-123844857D01*
X155864762Y-123868667D01*
X155650477Y-124154381D02*
X155698096Y-124178190D01*
X155817143Y-124178190D01*
X155864762Y-124154381D01*
X155888572Y-124106762D01*
X155888572Y-124059143D01*
X155864762Y-124011524D01*
X155817143Y-123987714D01*
X155698096Y-123987714D01*
X155650477Y-123963905D01*
X155483810Y-123844857D02*
X155293334Y-123844857D01*
X155412381Y-123678190D02*
X155412381Y-124106762D01*
X155388572Y-124154381D01*
X155340953Y-124178190D01*
X155293334Y-124178190D01*
X154912382Y-124178190D02*
X154912382Y-123916286D01*
X154936191Y-123868667D01*
X154983810Y-123844857D01*
X155079048Y-123844857D01*
X155126667Y-123868667D01*
X154912382Y-124154381D02*
X154960001Y-124178190D01*
X155079048Y-124178190D01*
X155126667Y-124154381D01*
X155150477Y-124106762D01*
X155150477Y-124059143D01*
X155126667Y-124011524D01*
X155079048Y-123987714D01*
X154960001Y-123987714D01*
X154912382Y-123963905D01*
X156368666Y-113518190D02*
X156201999Y-114018190D01*
X156035333Y-113518190D01*
X155582952Y-113970571D02*
X155606762Y-113994381D01*
X155678190Y-114018190D01*
X155725809Y-114018190D01*
X155797238Y-113994381D01*
X155844857Y-113946762D01*
X155868666Y-113899143D01*
X155892476Y-113803905D01*
X155892476Y-113732476D01*
X155868666Y-113637238D01*
X155844857Y-113589619D01*
X155797238Y-113542000D01*
X155725809Y-113518190D01*
X155678190Y-113518190D01*
X155606762Y-113542000D01*
X155582952Y-113565810D01*
X155082952Y-113970571D02*
X155106762Y-113994381D01*
X155178190Y-114018190D01*
X155225809Y-114018190D01*
X155297238Y-113994381D01*
X155344857Y-113946762D01*
X155368666Y-113899143D01*
X155392476Y-113803905D01*
X155392476Y-113732476D01*
X155368666Y-113637238D01*
X155344857Y-113589619D01*
X155297238Y-113542000D01*
X155225809Y-113518190D01*
X155178190Y-113518190D01*
X155106762Y-113542000D01*
X155082952Y-113565810D01*
X156297238Y-111454381D02*
X156225809Y-111478190D01*
X156106762Y-111478190D01*
X156059143Y-111454381D01*
X156035333Y-111430571D01*
X156011524Y-111382952D01*
X156011524Y-111335333D01*
X156035333Y-111287714D01*
X156059143Y-111263905D01*
X156106762Y-111240095D01*
X156202000Y-111216286D01*
X156249619Y-111192476D01*
X156273428Y-111168667D01*
X156297238Y-111121048D01*
X156297238Y-111073429D01*
X156273428Y-111025810D01*
X156249619Y-111002000D01*
X156202000Y-110978190D01*
X156082952Y-110978190D01*
X156011524Y-111002000D01*
X155511524Y-111430571D02*
X155535334Y-111454381D01*
X155606762Y-111478190D01*
X155654381Y-111478190D01*
X155725810Y-111454381D01*
X155773429Y-111406762D01*
X155797238Y-111359143D01*
X155821048Y-111263905D01*
X155821048Y-111192476D01*
X155797238Y-111097238D01*
X155773429Y-111049619D01*
X155725810Y-111002000D01*
X155654381Y-110978190D01*
X155606762Y-110978190D01*
X155535334Y-111002000D01*
X155511524Y-111025810D01*
X155059143Y-111478190D02*
X155297238Y-111478190D01*
X155297238Y-110978190D01*
X156309142Y-108914381D02*
X156237713Y-108938190D01*
X156118666Y-108938190D01*
X156071047Y-108914381D01*
X156047237Y-108890571D01*
X156023428Y-108842952D01*
X156023428Y-108795333D01*
X156047237Y-108747714D01*
X156071047Y-108723905D01*
X156118666Y-108700095D01*
X156213904Y-108676286D01*
X156261523Y-108652476D01*
X156285332Y-108628667D01*
X156309142Y-108581048D01*
X156309142Y-108533429D01*
X156285332Y-108485810D01*
X156261523Y-108462000D01*
X156213904Y-108438190D01*
X156094856Y-108438190D01*
X156023428Y-108462000D01*
X155809142Y-108938190D02*
X155809142Y-108438190D01*
X155690095Y-108438190D01*
X155618666Y-108462000D01*
X155571047Y-108509619D01*
X155547238Y-108557238D01*
X155523428Y-108652476D01*
X155523428Y-108723905D01*
X155547238Y-108819143D01*
X155571047Y-108866762D01*
X155618666Y-108914381D01*
X155690095Y-108938190D01*
X155809142Y-108938190D01*
X155332952Y-108795333D02*
X155094857Y-108795333D01*
X155380571Y-108938190D02*
X155213904Y-108438190D01*
X155047238Y-108938190D01*
X156082953Y-105922000D02*
X156130572Y-105898190D01*
X156202000Y-105898190D01*
X156273429Y-105922000D01*
X156321048Y-105969619D01*
X156344857Y-106017238D01*
X156368667Y-106112476D01*
X156368667Y-106183905D01*
X156344857Y-106279143D01*
X156321048Y-106326762D01*
X156273429Y-106374381D01*
X156202000Y-106398190D01*
X156154381Y-106398190D01*
X156082953Y-106374381D01*
X156059143Y-106350571D01*
X156059143Y-106183905D01*
X156154381Y-106183905D01*
X155844857Y-106398190D02*
X155844857Y-105898190D01*
X155559143Y-106398190D01*
X155559143Y-105898190D01*
X155321047Y-106398190D02*
X155321047Y-105898190D01*
X155202000Y-105898190D01*
X155130571Y-105922000D01*
X155082952Y-105969619D01*
X155059143Y-106017238D01*
X155035333Y-106112476D01*
X155035333Y-106183905D01*
X155059143Y-106279143D01*
X155082952Y-106326762D01*
X155130571Y-106374381D01*
X155202000Y-106398190D01*
X155321047Y-106398190D01*
X160908953Y-103636000D02*
X160956572Y-103612190D01*
X161028000Y-103612190D01*
X161099429Y-103636000D01*
X161147048Y-103683619D01*
X161170857Y-103731238D01*
X161194667Y-103826476D01*
X161194667Y-103897905D01*
X161170857Y-103993143D01*
X161147048Y-104040762D01*
X161099429Y-104088381D01*
X161028000Y-104112190D01*
X160980381Y-104112190D01*
X160908953Y-104088381D01*
X160885143Y-104064571D01*
X160885143Y-103897905D01*
X160980381Y-103897905D01*
X160670857Y-104112190D02*
X160670857Y-103612190D01*
X160385143Y-104112190D01*
X160385143Y-103612190D01*
X160147047Y-104112190D02*
X160147047Y-103612190D01*
X160028000Y-103612190D01*
X159956571Y-103636000D01*
X159908952Y-103683619D01*
X159885143Y-103731238D01*
X159861333Y-103826476D01*
X159861333Y-103897905D01*
X159885143Y-103993143D01*
X159908952Y-104040762D01*
X159956571Y-104088381D01*
X160028000Y-104112190D01*
X160147047Y-104112190D01*
X146938953Y-103636000D02*
X146986572Y-103612190D01*
X147058000Y-103612190D01*
X147129429Y-103636000D01*
X147177048Y-103683619D01*
X147200857Y-103731238D01*
X147224667Y-103826476D01*
X147224667Y-103897905D01*
X147200857Y-103993143D01*
X147177048Y-104040762D01*
X147129429Y-104088381D01*
X147058000Y-104112190D01*
X147010381Y-104112190D01*
X146938953Y-104088381D01*
X146915143Y-104064571D01*
X146915143Y-103897905D01*
X147010381Y-103897905D01*
X146700857Y-104112190D02*
X146700857Y-103612190D01*
X146415143Y-104112190D01*
X146415143Y-103612190D01*
X146177047Y-104112190D02*
X146177047Y-103612190D01*
X146058000Y-103612190D01*
X145986571Y-103636000D01*
X145938952Y-103683619D01*
X145915143Y-103731238D01*
X145891333Y-103826476D01*
X145891333Y-103897905D01*
X145915143Y-103993143D01*
X145938952Y-104040762D01*
X145986571Y-104088381D01*
X146058000Y-104112190D01*
X146177047Y-104112190D01*
X142112953Y-105922000D02*
X142160572Y-105898190D01*
X142232000Y-105898190D01*
X142303429Y-105922000D01*
X142351048Y-105969619D01*
X142374857Y-106017238D01*
X142398667Y-106112476D01*
X142398667Y-106183905D01*
X142374857Y-106279143D01*
X142351048Y-106326762D01*
X142303429Y-106374381D01*
X142232000Y-106398190D01*
X142184381Y-106398190D01*
X142112953Y-106374381D01*
X142089143Y-106350571D01*
X142089143Y-106183905D01*
X142184381Y-106183905D01*
X141874857Y-106398190D02*
X141874857Y-105898190D01*
X141589143Y-106398190D01*
X141589143Y-105898190D01*
X141351047Y-106398190D02*
X141351047Y-105898190D01*
X141232000Y-105898190D01*
X141160571Y-105922000D01*
X141112952Y-105969619D01*
X141089143Y-106017238D01*
X141065333Y-106112476D01*
X141065333Y-106183905D01*
X141089143Y-106279143D01*
X141112952Y-106326762D01*
X141160571Y-106374381D01*
X141232000Y-106398190D01*
X141351047Y-106398190D01*
X142339142Y-108914381D02*
X142267713Y-108938190D01*
X142148666Y-108938190D01*
X142101047Y-108914381D01*
X142077237Y-108890571D01*
X142053428Y-108842952D01*
X142053428Y-108795333D01*
X142077237Y-108747714D01*
X142101047Y-108723905D01*
X142148666Y-108700095D01*
X142243904Y-108676286D01*
X142291523Y-108652476D01*
X142315332Y-108628667D01*
X142339142Y-108581048D01*
X142339142Y-108533429D01*
X142315332Y-108485810D01*
X142291523Y-108462000D01*
X142243904Y-108438190D01*
X142124856Y-108438190D01*
X142053428Y-108462000D01*
X141839142Y-108938190D02*
X141839142Y-108438190D01*
X141720095Y-108438190D01*
X141648666Y-108462000D01*
X141601047Y-108509619D01*
X141577238Y-108557238D01*
X141553428Y-108652476D01*
X141553428Y-108723905D01*
X141577238Y-108819143D01*
X141601047Y-108866762D01*
X141648666Y-108914381D01*
X141720095Y-108938190D01*
X141839142Y-108938190D01*
X141362952Y-108795333D02*
X141124857Y-108795333D01*
X141410571Y-108938190D02*
X141243904Y-108438190D01*
X141077238Y-108938190D01*
X142327238Y-111454381D02*
X142255809Y-111478190D01*
X142136762Y-111478190D01*
X142089143Y-111454381D01*
X142065333Y-111430571D01*
X142041524Y-111382952D01*
X142041524Y-111335333D01*
X142065333Y-111287714D01*
X142089143Y-111263905D01*
X142136762Y-111240095D01*
X142232000Y-111216286D01*
X142279619Y-111192476D01*
X142303428Y-111168667D01*
X142327238Y-111121048D01*
X142327238Y-111073429D01*
X142303428Y-111025810D01*
X142279619Y-111002000D01*
X142232000Y-110978190D01*
X142112952Y-110978190D01*
X142041524Y-111002000D01*
X141541524Y-111430571D02*
X141565334Y-111454381D01*
X141636762Y-111478190D01*
X141684381Y-111478190D01*
X141755810Y-111454381D01*
X141803429Y-111406762D01*
X141827238Y-111359143D01*
X141851048Y-111263905D01*
X141851048Y-111192476D01*
X141827238Y-111097238D01*
X141803429Y-111049619D01*
X141755810Y-111002000D01*
X141684381Y-110978190D01*
X141636762Y-110978190D01*
X141565334Y-111002000D01*
X141541524Y-111025810D01*
X141089143Y-111478190D02*
X141327238Y-111478190D01*
X141327238Y-110978190D01*
X142398666Y-113518190D02*
X142231999Y-114018190D01*
X142065333Y-113518190D01*
X141612952Y-113970571D02*
X141636762Y-113994381D01*
X141708190Y-114018190D01*
X141755809Y-114018190D01*
X141827238Y-113994381D01*
X141874857Y-113946762D01*
X141898666Y-113899143D01*
X141922476Y-113803905D01*
X141922476Y-113732476D01*
X141898666Y-113637238D01*
X141874857Y-113589619D01*
X141827238Y-113542000D01*
X141755809Y-113518190D01*
X141708190Y-113518190D01*
X141636762Y-113542000D01*
X141612952Y-113565810D01*
X141112952Y-113970571D02*
X141136762Y-113994381D01*
X141208190Y-114018190D01*
X141255809Y-114018190D01*
X141327238Y-113994381D01*
X141374857Y-113946762D01*
X141398666Y-113899143D01*
X141422476Y-113803905D01*
X141422476Y-113732476D01*
X141398666Y-113637238D01*
X141374857Y-113589619D01*
X141327238Y-113542000D01*
X141255809Y-113518190D01*
X141208190Y-113518190D01*
X141136762Y-113542000D01*
X141112952Y-113565810D01*
X143609047Y-123678190D02*
X143323333Y-123678190D01*
X143466190Y-124178190D02*
X143466190Y-123678190D01*
X143085238Y-123678190D02*
X143132857Y-123702000D01*
X143156666Y-123749619D01*
X143132857Y-123797238D01*
X143085238Y-123821048D01*
X143037619Y-123797238D01*
X143013809Y-123749619D01*
X143037619Y-123702000D01*
X143085238Y-123678190D01*
X142394762Y-124178190D02*
X142394762Y-123678190D01*
X142275715Y-123678190D01*
X142204286Y-123702000D01*
X142156667Y-123749619D01*
X142132858Y-123797238D01*
X142109048Y-123892476D01*
X142109048Y-123963905D01*
X142132858Y-124059143D01*
X142156667Y-124106762D01*
X142204286Y-124154381D01*
X142275715Y-124178190D01*
X142394762Y-124178190D01*
X141680477Y-124178190D02*
X141680477Y-123916286D01*
X141704286Y-123868667D01*
X141751905Y-123844857D01*
X141847143Y-123844857D01*
X141894762Y-123868667D01*
X141680477Y-124154381D02*
X141728096Y-124178190D01*
X141847143Y-124178190D01*
X141894762Y-124154381D01*
X141918572Y-124106762D01*
X141918572Y-124059143D01*
X141894762Y-124011524D01*
X141847143Y-123987714D01*
X141728096Y-123987714D01*
X141680477Y-123963905D01*
X141513810Y-123844857D02*
X141323334Y-123844857D01*
X141442381Y-123678190D02*
X141442381Y-124106762D01*
X141418572Y-124154381D01*
X141370953Y-124178190D01*
X141323334Y-124178190D01*
X140942382Y-124178190D02*
X140942382Y-123916286D01*
X140966191Y-123868667D01*
X141013810Y-123844857D01*
X141109048Y-123844857D01*
X141156667Y-123868667D01*
X140942382Y-124154381D02*
X140990001Y-124178190D01*
X141109048Y-124178190D01*
X141156667Y-124154381D01*
X141180477Y-124106762D01*
X141180477Y-124059143D01*
X141156667Y-124011524D01*
X141109048Y-123987714D01*
X140990001Y-123987714D01*
X140942382Y-123963905D01*
X141823238Y-121392190D02*
X141537524Y-121392190D01*
X141680381Y-121892190D02*
X141680381Y-121392190D01*
X141418476Y-121892190D02*
X141156572Y-121558857D01*
X141418476Y-121558857D02*
X141156572Y-121892190D01*
X147157238Y-113518190D02*
X146871524Y-113518190D01*
X147014381Y-114018190D02*
X147014381Y-113518190D01*
X146752476Y-114018190D02*
X146490572Y-113684857D01*
X146752476Y-113684857D02*
X146490572Y-114018190D01*
X141525619Y-119098190D02*
X141692286Y-118860095D01*
X141811333Y-119098190D02*
X141811333Y-118598190D01*
X141620857Y-118598190D01*
X141573238Y-118622000D01*
X141549429Y-118645810D01*
X141525619Y-118693429D01*
X141525619Y-118764857D01*
X141549429Y-118812476D01*
X141573238Y-118836286D01*
X141620857Y-118860095D01*
X141811333Y-118860095D01*
X141358952Y-119098190D02*
X141097048Y-118764857D01*
X141358952Y-118764857D02*
X141097048Y-119098190D01*
X146859619Y-111478190D02*
X147026286Y-111240095D01*
X147145333Y-111478190D02*
X147145333Y-110978190D01*
X146954857Y-110978190D01*
X146907238Y-111002000D01*
X146883429Y-111025810D01*
X146859619Y-111073429D01*
X146859619Y-111144857D01*
X146883429Y-111192476D01*
X146907238Y-111216286D01*
X146954857Y-111240095D01*
X147145333Y-111240095D01*
X146692952Y-111478190D02*
X146431048Y-111144857D01*
X146692952Y-111144857D02*
X146431048Y-111478190D01*
D11*
X148259429Y-127209905D02*
X148259429Y-126409905D01*
X147764191Y-127209905D02*
X147840382Y-127171810D01*
X147878477Y-127133714D01*
X147916572Y-127057524D01*
X147916572Y-126828952D01*
X147878477Y-126752762D01*
X147840382Y-126714667D01*
X147764191Y-126676571D01*
X147649905Y-126676571D01*
X147573715Y-126714667D01*
X147535620Y-126752762D01*
X147497524Y-126828952D01*
X147497524Y-127057524D01*
X147535620Y-127133714D01*
X147573715Y-127171810D01*
X147649905Y-127209905D01*
X147764191Y-127209905D01*
X147268953Y-126409905D02*
X146811810Y-126409905D01*
X147040381Y-127209905D02*
X147040381Y-126409905D01*
X146583238Y-126981333D02*
X146202286Y-126981333D01*
X146659429Y-127209905D02*
X146392762Y-126409905D01*
X146126095Y-127209905D01*
X145859429Y-127209905D02*
X145859429Y-126409905D01*
X145668953Y-126409905D01*
X145554667Y-126448000D01*
X145478476Y-126524190D01*
X145440381Y-126600381D01*
X145402286Y-126752762D01*
X145402286Y-126867048D01*
X145440381Y-127019429D01*
X145478476Y-127095619D01*
X145554667Y-127171810D01*
X145668953Y-127209905D01*
X145859429Y-127209905D01*
X144526095Y-126676571D02*
X144335619Y-127209905D01*
X144145143Y-126676571D01*
X143421333Y-127209905D02*
X143878476Y-127209905D01*
X143649905Y-127209905D02*
X143649905Y-126409905D01*
X143726095Y-126524190D01*
X143802286Y-126600381D01*
X143878476Y-126638476D01*
X143078476Y-127133714D02*
X143040381Y-127171810D01*
X143078476Y-127209905D01*
X143116571Y-127171810D01*
X143078476Y-127133714D01*
X143078476Y-127209905D01*
X142735619Y-126486095D02*
X142697524Y-126448000D01*
X142621333Y-126409905D01*
X142430857Y-126409905D01*
X142354667Y-126448000D01*
X142316571Y-126486095D01*
X142278476Y-126562286D01*
X142278476Y-126638476D01*
X142316571Y-126752762D01*
X142773714Y-127209905D01*
X142278476Y-127209905D01*
X150373715Y-127806095D02*
X150335620Y-127768000D01*
X150259429Y-127729905D01*
X150068953Y-127729905D01*
X149992763Y-127768000D01*
X149954667Y-127806095D01*
X149916572Y-127882286D01*
X149916572Y-127958476D01*
X149954667Y-128072762D01*
X150411810Y-128529905D01*
X149916572Y-128529905D01*
X149230858Y-127996571D02*
X149230858Y-128529905D01*
X149421334Y-127691810D02*
X149611810Y-128263238D01*
X149116572Y-128263238D01*
X148240381Y-127691810D02*
X148926096Y-128720381D01*
X147821334Y-127729905D02*
X147745143Y-127729905D01*
X147668953Y-127768000D01*
X147630858Y-127806095D01*
X147592762Y-127882286D01*
X147554667Y-128034667D01*
X147554667Y-128225143D01*
X147592762Y-128377524D01*
X147630858Y-128453714D01*
X147668953Y-128491810D01*
X147745143Y-128529905D01*
X147821334Y-128529905D01*
X147897524Y-128491810D01*
X147935620Y-128453714D01*
X147973715Y-128377524D01*
X148011810Y-128225143D01*
X148011810Y-128034667D01*
X147973715Y-127882286D01*
X147935620Y-127806095D01*
X147897524Y-127768000D01*
X147821334Y-127729905D01*
X147249905Y-127806095D02*
X147211810Y-127768000D01*
X147135619Y-127729905D01*
X146945143Y-127729905D01*
X146868953Y-127768000D01*
X146830857Y-127806095D01*
X146792762Y-127882286D01*
X146792762Y-127958476D01*
X146830857Y-128072762D01*
X147288000Y-128529905D01*
X146792762Y-128529905D01*
X145878476Y-127691810D02*
X146564191Y-128720381D01*
X145649905Y-127806095D02*
X145611810Y-127768000D01*
X145535619Y-127729905D01*
X145345143Y-127729905D01*
X145268953Y-127768000D01*
X145230857Y-127806095D01*
X145192762Y-127882286D01*
X145192762Y-127958476D01*
X145230857Y-128072762D01*
X145688000Y-128529905D01*
X145192762Y-128529905D01*
X144697524Y-127729905D02*
X144621333Y-127729905D01*
X144545143Y-127768000D01*
X144507048Y-127806095D01*
X144468952Y-127882286D01*
X144430857Y-128034667D01*
X144430857Y-128225143D01*
X144468952Y-128377524D01*
X144507048Y-128453714D01*
X144545143Y-128491810D01*
X144621333Y-128529905D01*
X144697524Y-128529905D01*
X144773714Y-128491810D01*
X144811810Y-128453714D01*
X144849905Y-128377524D01*
X144888000Y-128225143D01*
X144888000Y-128034667D01*
X144849905Y-127882286D01*
X144811810Y-127806095D01*
X144773714Y-127768000D01*
X144697524Y-127729905D01*
X143668952Y-128529905D02*
X144126095Y-128529905D01*
X143897524Y-128529905D02*
X143897524Y-127729905D01*
X143973714Y-127844190D01*
X144049905Y-127920381D01*
X144126095Y-127958476D01*
X142983238Y-127729905D02*
X143135619Y-127729905D01*
X143211809Y-127768000D01*
X143249904Y-127806095D01*
X143326095Y-127920381D01*
X143364190Y-128072762D01*
X143364190Y-128377524D01*
X143326095Y-128453714D01*
X143288000Y-128491810D01*
X143211809Y-128529905D01*
X143059428Y-128529905D01*
X142983238Y-128491810D01*
X142945142Y-128453714D01*
X142907047Y-128377524D01*
X142907047Y-128187048D01*
X142945142Y-128110857D01*
X142983238Y-128072762D01*
X143059428Y-128034667D01*
X143211809Y-128034667D01*
X143288000Y-128072762D01*
X143326095Y-128110857D01*
X143364190Y-128187048D01*
X141726094Y-127729905D02*
X141726094Y-128301333D01*
X141764190Y-128415619D01*
X141840380Y-128491810D01*
X141954666Y-128529905D01*
X142030856Y-128529905D01*
X140926094Y-127768000D02*
X141002285Y-127729905D01*
X141116570Y-127729905D01*
X141230856Y-127768000D01*
X141307047Y-127844190D01*
X141345142Y-127920381D01*
X141383237Y-128072762D01*
X141383237Y-128187048D01*
X141345142Y-128339429D01*
X141307047Y-128415619D01*
X141230856Y-128491810D01*
X141116570Y-128529905D01*
X141040380Y-128529905D01*
X140926094Y-128491810D01*
X140887999Y-128453714D01*
X140887999Y-128187048D01*
X141040380Y-128187048D01*
X140659428Y-127729905D02*
X140392761Y-128529905D01*
X140126094Y-127729905D01*
D13*
X151130000Y-116332000D02*
X151130000Y-116586000D01*
X151130000Y-115316000D02*
X151130000Y-115570000D01*
X151130000Y-114300000D02*
X151130000Y-114554000D01*
X151130000Y-113538000D02*
X151130000Y-101600000D01*
X151130000Y-129540000D02*
X151130000Y-117348000D01*
X165100000Y-101600000D02*
X165100000Y-129540000D01*
X137160000Y-129540000D02*
X165100000Y-129540000D01*
X137160000Y-101600000D02*
X137160000Y-129540000D01*
X137160000Y-101600000D02*
X165100000Y-101600000D01*
%LPC*%
D14*
X161036000Y-122682000D03*
X158496000Y-120142000D03*
X163576000Y-120142000D03*
D15*
X163068000Y-103632000D03*
D16*
X163068000Y-106172000D03*
X163068000Y-108712000D03*
X163068000Y-111252000D03*
X163068000Y-113792000D03*
X163068000Y-116332000D03*
D15*
X153162000Y-103632000D03*
D16*
X153162000Y-106172000D03*
X153162000Y-108712000D03*
X153162000Y-111252000D03*
X153162000Y-113792000D03*
X153162000Y-116332000D03*
X153162000Y-118872000D03*
X153162000Y-121412000D03*
X153162000Y-123952000D03*
X153162000Y-126492000D03*
D15*
X139192000Y-103632000D03*
D16*
X139192000Y-106172000D03*
X139192000Y-108712000D03*
X139192000Y-111252000D03*
X139192000Y-113792000D03*
X139192000Y-116332000D03*
X139192000Y-118872000D03*
X139192000Y-121412000D03*
X139192000Y-123952000D03*
X139192000Y-126492000D03*
D15*
X149098000Y-103632000D03*
D16*
X149098000Y-106172000D03*
X149098000Y-108712000D03*
X149098000Y-111252000D03*
X149098000Y-113792000D03*
X149098000Y-116332000D03*
D14*
X147066000Y-122682000D03*
X144526000Y-120142000D03*
X149606000Y-120142000D03*
M02*
